<svg xmlns="http://www.w3.org/2000/svg" x="0px" y="0px"
width="100" height="100"
viewBox="0,0,256,256">
<g fill-opacity="0" fill="#dddddd" fill-rule="nonzero" stroke="none" stroke-width="1" stroke-linecap="butt" stroke-linejoin="miter" stroke-miterlimit="10" stroke-dasharray="" stroke-dashoffset="0" font-family="none" font-weight="none" font-size="none" text-anchor="none" style="mix-blend-mode: normal"><path d="M0,256v-256h256v256z" id="bgRectangle"></path></g><g fill="#ffffff" fill-rule="nonzero" stroke="none" stroke-width="1" stroke-linecap="butt" stroke-linejoin="miter" stroke-miterlimit="10" stroke-dasharray="" stroke-dashoffset="0" font-family="none" font-weight="none" font-size="none" text-anchor="none" style="mix-blend-mode: normal"><path d="M29.44,256c-16.25926,0 -29.44,-13.18074 -29.44,-29.44v-197.12c0,-16.25926 13.18074,-29.44 29.44,-29.44h197.12c16.25926,0 29.44,13.18074 29.44,29.44v197.12c0,16.25926 -13.18074,29.44 -29.44,29.44z" id="shape"></path></g><g fill="#ff9856" fill-rule="nonzero" stroke="none" stroke-width="1" stroke-linecap="butt" stroke-linejoin="miter" stroke-miterlimit="10" stroke-dasharray="" stroke-dashoffset="0" font-family="none" font-weight="none" font-size="none" text-anchor="none" style="mix-blend-mode: normal"><g transform="scale(4,4)"><path d="M5,12c-1.69922,0 -3,1.30078 -3,3v36c0,1.69922 1.30078,3 3,3h33.36328c1.35938,5.72266 6.5,10 12.63672,10c7.16797,0 13,-5.83203 13,-13c0,-4.58984 -2.39844,-8.625 -6,-10.9375v-25.0625c0,-1.69922 -1.30078,-3 -3,-3zM5,14h50c0.60156,0 1,0.39844 1,1v24.00391c-1.53906,-0.64453 -3.23047,-1.00391 -5,-1.00391c-0.19141,0 -0.37891,0.01953 -0.57031,0.03125l-3.33203,-3.33203c-1.09766,-1.10156 -3.09766,-1.10156 -4.19531,0l-8.40234,8.39844l-3.40234,-3.39844c-1.09766,-1.19922 -2.99609,-1.19922 -4.19531,0l-8.30469,8.30078h-3.55469c-0.625,0 -1.04297,0.39844 -1.04297,1c0,0.60156 0.52344,1 1.04297,1h23.00781c-0.02734,0.33203 -0.05078,0.66016 -0.05078,1c0,0.33984 0.02344,0.66797 0.05078,1h-33.05078c-0.60156,0 -1,-0.5 -1,-1v-36c0,-0.60156 0.39844,-1 1,-1zM17,16c-0.60156,0 -1,0.44531 -1,1v2c0,0.55078 0.39844,1 1,1c0.60156,0 1,-0.44531 1,-1v-2c0,-0.55469 -0.39844,-1 -1,-1zM11.89453,17.33594c-0.13281,0.01563 -0.26562,0.0625 -0.39453,0.13672c-0.51953,0.30078 -0.64062,0.88672 -0.36328,1.36719l1,1.73047c0.18359,0.32422 0.51953,0.50391 0.86328,0.50391c0.13281,0.01953 0.32813,-0.03516 0.5,-0.13672c0.51953,-0.30078 0.64063,-0.88672 0.36328,-1.36719l-1,-1.73047c-0.20312,-0.35937 -0.57422,-0.55469 -0.96875,-0.50391zM22.10938,17.33984c-0.39453,-0.05469 -0.76562,0.14063 -0.97266,0.5l-1,1.73438c-0.27734,0.47656 -0.15625,1.0625 0.36328,1.36328c0.17578,0.10156 0.37109,0.16016 0.5,0.13672c0.34766,0 0.68359,-0.18359 0.86719,-0.5l1,-1.73437c0.27734,-0.48047 0.15625,-1.06641 -0.36719,-1.36719c-0.12891,-0.07422 -0.26172,-0.11719 -0.39062,-0.13281zM8.46484,21c-0.38281,-0.05469 -0.76562,0.11328 -0.99219,0.5c-0.30078,0.51953 -0.10937,1.08984 0.36719,1.36719l1.73047,1c0.16016,0.09375 0.30469,0.17578 0.48438,0.16406c0.35938,-0.02344 0.68359,-0.18359 0.88281,-0.53125c0.30078,-0.51953 0.11328,-1.08984 -0.36719,-1.36328l-1.73047,-1c-0.12109,-0.07031 -0.24609,-0.11719 -0.375,-0.13672zM25.53125,21c-0.125,0.01953 -0.25,0.06641 -0.37109,0.13672l-1.73437,1c-0.47656,0.27344 -0.66406,0.84375 -0.36328,1.36328c0.19922,0.34766 0.52344,0.50781 0.88281,0.53125c0.17969,0.01172 0.32422,-0.07422 0.48047,-0.16797l1.73438,-1c0.48047,-0.27344 0.66406,-0.84375 0.36719,-1.36328c-0.22656,-0.39062 -0.61328,-0.55469 -0.99609,-0.5zM17.07422,22.00781c-2.75391,0 -4.99219,2.23828 -4.99219,4.99219c0,2.75391 2.23828,4.99219 4.99219,4.99219c2.75391,0 4.99219,-2.23828 4.99219,-4.99219c0,-2.75391 -2.23828,-4.99219 -4.99219,-4.99219zM17.07422,23.99219c1.66406,0 3.00781,1.34375 3.00781,3.00781c0,1.66406 -1.34375,3.00781 -3.00781,3.00781c-1.66406,0 -3.00781,-1.34375 -3.00781,-3.00781c0,-1.66406 1.34375,-3.00781 3.00781,-3.00781zM7,26c-0.55469,0 -1,0.39844 -1,1c0,0.60156 0.44531,1 1,1h2c0.55469,0 1,-0.39844 1,-1c0,-0.60156 -0.44531,-1 -1,-1zM25,26c-0.55469,0 -1,0.39844 -1,1c0,0.60156 0.44531,1 1,1h2c0.55469,0 1,-0.39844 1,-1c0,-0.60156 -0.44531,-1 -1,-1zM9.94531,30c-0.12891,0.01953 -0.25391,0.06641 -0.375,0.13672l-1.73047,1c-0.47656,0.27344 -0.66797,0.84375 -0.36719,1.36328c0.19922,0.34766 0.52344,0.50781 0.88281,0.53125c0.17969,0.01172 0.32422,-0.07422 0.48438,-0.16797l1.73047,-1c0.48047,-0.27344 0.66797,-0.84375 0.36719,-1.36328c-0.22266,-0.39062 -0.60937,-0.55469 -0.99219,-0.5zM24.05469,30c-0.38281,-0.05469 -0.76562,0.10938 -0.99219,0.5c-0.30078,0.51953 -0.11328,1.08984 0.36328,1.36328l1.73438,1c0.16016,0.09375 0.30469,0.17969 0.48047,0.16797c0.36328,-0.02344 0.68359,-0.18359 0.88672,-0.53125c0.29688,-0.51953 0.11328,-1.08984 -0.36719,-1.36328l-1.73437,-1c-0.11719,-0.07031 -0.24219,-0.11719 -0.37109,-0.13672zM13.10547,32.92578c-0.39453,-0.05078 -0.76562,0.14453 -0.96875,0.5l-1,1.73438c-0.27734,0.48047 -0.15625,1.06641 0.36328,1.36719c0.17188,0.09766 0.36719,0.15625 0.5,0.13281c0.34375,0 0.67969,-0.17969 0.86328,-0.5l1,-1.73437c0.27734,-0.47656 0.15625,-1.0625 -0.36328,-1.36328c-0.12891,-0.07422 -0.26172,-0.12109 -0.39453,-0.13672zM20.89453,32.92578c-0.13281,0.01563 -0.26562,0.0625 -0.39453,0.13672c-0.51953,0.30078 -0.64062,0.88672 -0.36328,1.36328l1,1.73438c0.18359,0.32422 0.51953,0.5 0.86328,0.5c0.13281,0.02344 0.32813,-0.03516 0.5,-0.13281c0.51953,-0.30078 0.64063,-0.88672 0.36328,-1.36719l-1,-1.73437c-0.20312,-0.35547 -0.57422,-0.55078 -0.96875,-0.5zM17,34c-0.60156,0 -1,0.44531 -1,1v2c0,0.55469 0.39844,1 1,1c0.60156,0 1,-0.44531 1,-1v-2c0,-0.55469 -0.39844,-1 -1,-1zM45,35.80078c0.25,0 0.5,0.09766 0.69922,0.29688l2.26953,2.27344c-4.74219,1.14063 -8.47656,4.87891 -9.60547,9.62891h-5.96094l11.89844,-11.90234c0.19922,-0.19922 0.44922,-0.29687 0.69922,-0.29687zM51,40c6.06641,0 11,4.93359 11,11c0,6.06641 -4.93359,11 -11,11c-6.06641,0 -11,-4.93359 -11,-11c0,-6.06641 4.93359,-11 11,-11zM29,40.80078c0.25,0 0.5,0.09766 0.69922,0.29688l3.39844,3.40234l-3.5,3.5h-8.19531l6.89844,-6.90234c0.19922,-0.19922 0.44922,-0.29687 0.69922,-0.29687zM51,44c-0.55078,0 -1,0.44922 -1,1v5h-5c-0.55078,0 -1,0.44922 -1,1c0,0.55078 0.44922,1 1,1h5v5c0,0.55078 0.44922,1 1,1c0.55078,0 1,-0.44922 1,-1v-5h5c0.55078,0 1,-0.44922 1,-1c0,-0.55078 -0.44922,-1 -1,-1h-5v-5c0,-0.55078 -0.44922,-1 -1,-1zM7,48c-0.60156,0 -1,0.39844 -1,1c0,0.60156 0.39844,1 1,1h4c0.60156,0 1,-0.39844 1,-1c0,-0.60156 -0.39844,-1 -1,-1z"></path></g></g>
</svg>