<svg xmlns="http://www.w3.org/2000/svg" x="0px" y="0px"
width="100" height="100"
viewBox="0,0,256,256">
<g fill="#ff9856" fill-rule="nonzero" stroke="none" stroke-width="1" stroke-linecap="butt" stroke-linejoin="miter" stroke-miterlimit="10" stroke-dasharray="" stroke-dashoffset="0" font-family="none" font-weight="none" font-size="none" text-anchor="none" style="mix-blend-mode: normal"><g transform="scale(4,4)"><path d="M30.99609,6.01563c-0.0625,0 -0.12109,0.00391 -0.18359,0.01563c-0.0625,0.01563 -0.125,0.03125 -0.1875,0.05469c-0.05859,0.02734 -0.11328,0.05859 -0.17187,0.09375c-0.02734,0.01953 -0.06641,0.02734 -0.09375,0.05078l-12.35937,10.23047v-3.40234c0,-0.55469 -0.44531,-1 -1,-1c-0.55469,0 -1,0.44531 -1,1v5c0,0.01563 0.00781,0.03125 0.01172,0.05078l-2.01172,1.66016v-10.71484c0,-0.55078 -0.44531,-1 -1,-1c-0.55469,0 -1,0.44922 -1,1v12.00391c0,0.10938 0.03125,0.21484 0.0625,0.31641l-10.70312,8.85547c-0.42578,0.35156 -0.48047,0.98047 -0.13281,1.40625c0.19922,0.23828 0.48828,0.36328 0.77344,0.36328c0.22656,0 0.45313,-0.07422 0.64063,-0.23047l3.35938,-2.78125v25.01172h-3c-0.55469,0 -1,0.44922 -1,1c0,0.55078 0.44531,1 1,1h56c0.55469,0 1,-0.44922 1,-1c0,-0.55078 -0.44531,-1 -1,-1h-3v-25.01172l3.35938,2.78125c0.1875,0.15625 0.41406,0.23047 0.64063,0.23047c0.28516,0 0.57031,-0.125 0.76953,-0.35937c0.35156,-0.42969 0.29297,-1.05859 -0.13281,-1.41016l-29,-24c-0.02734,-0.02344 -0.0625,-0.03125 -0.09375,-0.05078c-0.05859,-0.03906 -0.11328,-0.07031 -0.17969,-0.09375c-0.05859,-0.02344 -0.11328,-0.03906 -0.17578,-0.05469c-0.0625,-0.01172 -0.125,-0.01562 -0.19141,-0.01562zM31,8.29688l23,19.03516v16.66797h-16v-8c0,-1.10156 -0.89844,-2 -2,-2h-10c-1.10156,0 -2,0.89844 -2,2v8h-16v-16.66797zM31,18c-2.75781,0 -5,2.24219 -5,5c0,2.75781 2.24219,5 5,5c2.75781,0 5,-2.24219 5,-5c0,-2.75781 -2.24219,-5 -5,-5zM31,19.79297c1.76953,0 3.20703,1.4375 3.20703,3.20703c0,1.76953 -1.4375,3.20703 -3.20703,3.20703c-1.76953,0 -3.20703,-1.4375 -3.20703,-3.20703c0,-1.76953 1.4375,-3.20703 3.20703,-3.20703zM26,36h10v17.94922h-10zM33,43c-0.55469,0 -1,0.44922 -1,1v2c0,0.55078 0.44531,1 1,1c0.55469,0 1,-0.44922 1,-1v-2c0,-0.55078 -0.44531,-1 -1,-1zM8,46h16v8h-16zM38,46h16v8h-16zM11,48c-0.55469,0 -1,0.44922 -1,1v2c0,0.55078 0.44531,1 1,1c0.55469,0 1,-0.44922 1,-1v-2c0,-0.55078 -0.44531,-1 -1,-1zM16,48c-0.55469,0 -1,0.44922 -1,1v2c0,0.55078 0.44531,1 1,1c0.55469,0 1,-0.44922 1,-1v-2c0,-0.55078 -0.44531,-1 -1,-1zM21,48c-0.55469,0 -1,0.44922 -1,1v2c0,0.55078 0.44531,1 1,1c0.55469,0 1,-0.44922 1,-1v-2c0,-0.55078 -0.44531,-1 -1,-1zM41,48c-0.55469,0 -1,0.44922 -1,1v2c0,0.55078 0.44531,1 1,1c0.55469,0 1,-0.44922 1,-1v-2c0,-0.55078 -0.44531,-1 -1,-1zM46,48c-0.55469,0 -1,0.44922 -1,1v2c0,0.55078 0.44531,1 1,1c0.55469,0 1,-0.44922 1,-1v-2c0,-0.55078 -0.44531,-1 -1,-1zM51,48c-0.55469,0 -1,0.44922 -1,1v2c0,0.55078 0.44531,1 1,1c0.55469,0 1,-0.44922 1,-1v-2c0,-0.55078 -0.44531,-1 -1,-1z"></path></g></g>
</svg>