<svg width="94" height="79" viewBox="0 0 94 79" fill="none" xmlns="http://www.w3.org/2000/svg">
<path d="M47 9.98242C51.8096 4.25 58.9336 0.5 67 0.5C81.4824 0.5 93.25 12.2676 93.25 26.75C93.25 32.6094 90.2764 38.6494 85.9746 44.4648C81.6728 50.2852 75.9893 55.9053 70.3203 60.8369C58.9824 70.6953 47.6641 77.8047 47.6641 77.8047L47 78.2295L46.3359 77.8047C46.3359 77.8047 35.0176 70.6953 23.6797 60.8369C18.0107 55.9053 12.3271 50.2852 8.02539 44.4648C3.72363 38.6494 0.75 32.6094 0.75 26.75C0.75 12.2676 12.5176 0.5 27 0.5C35.0664 0.5 42.1904 4.25 47 9.98242Z" fill="white"/>
</svg>
