<svg width="100" height="100" viewBox="0 0 100 100" fill="none" xmlns="http://www.w3.org/2000/svg">
<path d="M50 21.9824C54.8117 16.2479 61.9317 12.5 70 12.5C84.483 12.5 96.25 24.267 96.25 38.75C96.25 44.6113 93.2779 50.6474 88.9746 56.4673C84.6713 62.2872 78.9885 67.9068 73.3203 72.8369C61.9839 82.6972 50.6641 89.8071 50.6641 89.8071L50 90.227L49.3359 89.8071C49.3359 89.8071 38.0161 82.6972 26.6797 72.8369C21.0115 67.9068 15.3287 62.2872 11.0254 56.4673C6.72212 50.6474 3.75 44.6113 3.75 38.75C3.75 24.267 15.517 12.5 30 12.5C38.0683 12.5 45.1883 16.2479 50 21.9824Z" fill="white"/>
<path d="M30 12.5C15.517 12.5 3.75 24.267 3.75 38.75C3.75 44.6113 6.72211 50.6474 11.0254 56.4673C15.3287 62.2872 21.0115 67.9068 26.6797 72.8369C38.0161 82.6972 49.3359 89.8071 49.3359 89.8071L50 90.2271L50.6641 89.8071C50.6641 89.8071 61.9839 82.6972 73.3203 72.8369C78.9885 67.9068 84.6713 62.2872 88.9746 56.4673C93.2779 50.6474 96.25 44.6114 96.25 38.75C96.25 24.267 84.483 12.5 70 12.5C61.9318 12.5 54.8117 16.2479 50 21.9824C45.1883 16.2479 38.0682 12.5 30 12.5ZM30 15C37.7886 15 44.6643 18.7566 48.999 24.5435L50 25.8789L51.001 24.5435C55.3357 18.7566 62.2114 15 70 15C83.132 15 93.75 25.618 93.75 38.75C93.75 43.748 91.0971 49.3916 86.9629 54.9829C82.8287 60.5742 77.2615 66.0971 71.6797 70.9521C61.0466 80.2007 50.9881 86.6166 50 87.2437C49.0119 86.6166 38.9534 80.2007 28.3203 70.9521C22.7385 66.0971 17.1713 60.5742 13.0371 54.9829C8.90289 49.3917 6.25 43.748 6.25 38.75C6.25 25.618 16.868 15 30 15ZM30 18.75C29.31 18.75 28.75 19.31 28.75 20C28.75 20.69 29.31 21.25 30 21.25C30.69 21.25 31.25 20.69 31.25 20C31.25 19.31 30.69 18.75 30 18.75ZM70 18.75C69.31 18.75 68.75 19.31 68.75 20C68.75 20.69 69.31 21.25 70 21.25C70.69 21.25 71.25 20.69 71.25 20C71.25 19.31 70.69 18.75 70 18.75ZM25.3198 19.4018C25.159 19.3795 24.9908 19.3889 24.8242 19.4336C24.158 19.6123 23.7617 20.2969 23.9404 20.9644C24.1192 21.6319 24.8037 22.0269 25.4712 21.8481C26.1387 21.6694 26.5337 20.9849 26.355 20.3174C26.2209 19.8168 25.8023 19.4688 25.3198 19.4018ZM34.6802 19.4018C34.1975 19.4688 33.7791 19.8168 33.645 20.3174C33.4663 20.9836 33.8626 21.6694 34.5288 21.8481C35.1951 22.0269 35.8808 21.6306 36.0596 20.9644C36.2383 20.2981 35.842 19.6123 35.1758 19.4336C35.0089 19.3889 34.8411 19.3795 34.6802 19.4018ZM65.3198 19.4018C65.1589 19.3794 64.9911 19.3889 64.8242 19.4336C64.158 19.6123 63.7617 20.2969 63.9404 20.9644C64.1192 21.6306 64.8037 22.0269 65.4712 21.8481C66.1375 21.6694 66.5337 20.9849 66.355 20.3174C66.2209 19.8177 65.8025 19.4691 65.3198 19.4018ZM74.6826 19.4043C74.2 19.4713 73.7815 19.8192 73.6475 20.3198C73.4687 20.9861 73.8626 21.6718 74.5288 21.8506C75.1951 22.0293 75.8833 21.633 76.062 20.9668C76.2408 20.3005 75.8445 19.6148 75.1782 19.436C75.0113 19.3914 74.8435 19.382 74.6826 19.4043ZM20.4712 21.2695C20.31 21.2895 20.1494 21.342 20 21.4282C19.4025 21.7732 19.1985 22.5397 19.5435 23.1372C19.8885 23.7347 20.6525 23.9387 21.25 23.5938C21.8475 23.2488 22.0515 22.4847 21.7065 21.8872C21.4478 21.4391 20.9546 21.2097 20.4712 21.2695ZM79.5288 22.522C79.0457 22.4621 78.5531 22.6915 78.2935 23.1397C77.9485 23.7372 78.1525 24.5012 78.75 24.8462C79.3475 25.1912 80.1115 24.9872 80.4565 24.3897C80.8015 23.7922 80.5975 23.0257 80 22.6807C79.8506 22.5944 79.6898 22.5419 79.5288 22.522ZM16.7407 24.2407C16.421 24.2407 16.1013 24.3632 15.8569 24.6069C15.3682 25.0957 15.3682 25.887 15.8569 26.3745C16.3457 26.8633 17.137 26.8633 17.6245 26.3745C18.1133 25.8858 18.1133 25.0944 17.6245 24.6069C17.3801 24.3632 17.0604 24.2407 16.7407 24.2407ZM83.2568 25.4907C82.937 25.4907 82.6174 25.6132 82.373 25.8569C81.8843 26.3457 81.8843 27.137 82.373 27.6245C82.8618 28.1133 83.6531 28.1133 84.1406 27.6245C84.6294 27.1358 84.6294 26.3444 84.1406 25.8569C83.8969 25.6132 83.5767 25.4907 83.2568 25.4907ZM13.916 28.1348C13.4326 28.0749 12.9394 28.3019 12.6807 28.75C12.3357 29.3475 12.5397 30.1115 13.1372 30.4565C13.7347 30.8015 14.5012 30.5975 14.8462 30C15.1912 29.4025 14.9847 28.6385 14.3872 28.2935C14.2378 28.2072 14.0771 28.1547 13.916 28.1348ZM86.0815 29.3823C85.9203 29.4023 85.76 29.4548 85.6104 29.541C85.0129 29.886 84.8064 30.6501 85.1514 31.2475C85.4964 31.845 86.2629 32.0515 86.8604 31.7065C87.4579 31.3615 87.6619 30.595 87.3169 29.9975C87.0581 29.5494 86.5651 29.3224 86.0815 29.3823ZM11.7163 32.6587C11.2338 32.7259 10.8152 33.0745 10.6812 33.5742C10.5024 34.2405 10.8987 34.9262 11.5649 35.105C12.2312 35.2837 12.917 34.8874 13.0957 34.2212C13.2745 33.5549 12.8782 32.8692 12.2119 32.6904C12.0454 32.6457 11.8771 32.6363 11.7163 32.6587ZM88.2837 33.9111C88.1229 33.8887 87.9546 33.8957 87.7881 33.9404C87.1218 34.1192 86.7255 34.8061 86.9043 35.4736C87.083 36.1399 87.7676 36.5362 88.4351 36.3574C89.1013 36.1787 89.4976 35.4917 89.3188 34.8242C89.1848 34.3245 88.7661 33.9784 88.2837 33.9111ZM43.75 35C43.0596 35 42.5 35.5596 42.5 36.25C42.5 36.9404 43.0596 37.5 43.75 37.5C44.4404 37.5 45 36.9404 45 36.25C45 35.5596 44.4404 35 43.75 35ZM56.25 35C55.5596 35 55 35.5596 55 36.25C55 36.9404 55.5596 37.5 56.25 37.5C56.9404 37.5 57.5 36.9404 57.5 36.25C57.5 35.5596 56.9404 35 56.25 35ZM11.25 37.5C10.56 37.5 10 38.06 10 38.75C10 39.44 10.56 40 11.25 40C11.94 40 12.5 39.44 12.5 38.75C12.5 38.06 11.94 37.5 11.25 37.5ZM88.75 37.5C88.06 37.5 87.5 38.06 87.5 38.75C87.5 39.44 88.06 40 88.75 40C89.44 40 90 39.44 90 38.75C90 38.06 89.44 37.5 88.75 37.5ZM44.375 38.7647C42.649 38.7647 41.2499 40.7201 41.2499 43.1323C41.2499 45.5445 42.649 47.5 44.375 47.5C46.101 47.5 47.5001 45.5445 47.5001 43.1323C47.5001 40.7201 46.101 38.7647 44.375 38.7647ZM55.625 38.7647C53.899 38.7647 52.4999 40.7201 52.4999 43.1323C52.4999 45.5445 53.899 47.5 55.625 47.5C57.351 47.5 58.7501 45.5445 58.7501 43.1323C58.7501 40.7201 57.351 38.7647 55.625 38.7647ZM12.0606 42.3633C11.8997 42.3409 11.7318 42.3503 11.5649 42.395C10.8987 42.5738 10.5024 43.2583 10.6812 43.9258C10.8599 44.592 11.5444 44.9883 12.2119 44.8096C12.8794 44.6308 13.2745 43.9463 13.0957 43.2788C12.9617 42.7791 12.5432 42.4305 12.0606 42.3633ZM87.9395 43.6157C87.4568 43.6827 87.0383 44.0306 86.9043 44.5312C86.7255 45.1975 87.1218 45.8833 87.7881 46.062C88.4543 46.2408 89.1401 45.8445 89.3188 45.1782C89.4976 44.512 89.1013 43.8262 88.4351 43.6475C88.2682 43.6028 88.1003 43.5934 87.9395 43.6157ZM36.25 43.75C35.5596 43.75 35 44.3096 35 45C35 45.6904 35.5596 46.25 36.25 46.25C36.9404 46.25 37.5 45.6904 37.5 45C37.5 44.3096 36.9404 43.75 36.25 43.75ZM63.75 45C63.0596 45 62.5 45.5596 62.5 46.25C62.5 46.9404 63.0596 47.5 63.75 47.5C64.4404 47.5 65 46.9404 65 46.25C65 45.5596 64.4404 45 63.75 45ZM13.6084 46.8823C13.4473 46.9023 13.2866 46.9548 13.1372 47.041C12.5397 47.386 12.3357 48.15 12.6807 48.7475C13.0257 49.345 13.7897 49.5515 14.3872 49.2065C14.9847 48.8615 15.1912 48.095 14.8462 47.4975C14.5874 47.0494 14.0918 46.8224 13.6084 46.8823ZM36.8848 47.5C35.1644 47.5 33.7698 49.4588 33.7698 51.875C33.7698 54.2912 35.1644 56.25 36.8848 56.25C38.6051 56.25 39.9998 54.2912 39.9998 51.875C39.9998 49.4588 38.6051 47.5 36.8848 47.5ZM86.3916 48.1372C85.9082 48.0773 85.4126 48.3043 85.1538 48.7525C84.8088 49.35 85.0129 50.114 85.6104 50.459C86.2079 50.804 86.9743 50.6 87.3193 50.0025C87.6643 49.405 87.4579 48.6409 86.8604 48.2959C86.711 48.2097 86.5527 48.1572 86.3916 48.1372ZM63.125 48.75C61.399 48.75 59.9999 50.682 59.9999 53.0652C59.9999 55.4484 61.399 57.3804 63.125 57.3804C64.851 57.3804 66.2501 55.4484 66.2501 53.0652C66.2501 50.682 64.851 48.75 63.125 48.75ZM50.0049 52.5C48.0461 52.585 47.2086 53.2263 46.1011 56.1938C45.5261 57.7213 44.2765 58.5159 43.064 59.2847C41.5577 60.2422 40 61.2268 40 63.4668C40 65.8443 42.5059 68.75 45.4297 68.75C46.6797 68.75 47.621 68.5061 48.4497 68.2861C48.9972 68.1449 49.4887 68.0381 50 67.9956C50.5138 68.0381 51.0053 68.1449 51.5503 68.2861C52.379 68.5049 53.3203 68.75 54.5703 68.75C57.4941 68.75 60 65.8418 60 63.4668C60.01 61.2268 58.4521 60.2422 56.9458 59.2847C55.7358 58.5159 54.4849 57.7213 53.9111 56.1938C52.8036 53.2263 51.9636 52.5838 50.0049 52.5Z" fill="#DA0000"/>
</svg>
