<svg xmlns="http://www.w3.org/2000/svg" x="0px" y="0px"
width="100" height="100"
viewBox="0,0,256,256">
<g fill="#ff9856" fill-rule="nonzero" stroke="none" stroke-width="1" stroke-linecap="butt" stroke-linejoin="miter" stroke-miterlimit="10" stroke-dasharray="" stroke-dashoffset="0" font-family="none" font-weight="none" font-size="none" text-anchor="none" style="mix-blend-mode: normal"><g transform="scale(4,4)"><path d="M23,4c-3.85937,0 -7,4.03906 -7,9c0,4.96094 3.14063,9 7,9c3.85938,0 7,-4.03906 7,-9c0,-4.96094 -3.14062,-9 -7,-9zM41,4c-3.85937,0 -7,4.03906 -7,9c0,4.96094 3.14063,9 7,9c3.85938,0 7,-4.03906 7,-9c0,-4.96094 -3.14062,-9 -7,-9zM23,6c2.75781,0 5,3.14063 5,7c0,3.85938 -2.24219,7 -5,7c-2.75781,0 -5,-3.14062 -5,-7c0,-3.85937 2.24219,-7 5,-7zM41,6c2.75781,0 5,3.14063 5,7c0,3.85938 -2.24219,7 -5,7c-2.75781,0 -5,-3.14062 -5,-7c0,-3.85937 2.24219,-7 5,-7zM11,18c-3.85937,0 -7,4.03906 -7,9c0,4.96094 3.14063,9 7,9c3.85938,0 7,-4.03906 7,-9c0,-4.96094 -3.14062,-9 -7,-9zM53,18c-3.85937,0 -7,4.03906 -7,9c0,4.96094 3.14063,9 7,9c3.85938,0 7,-4.03906 7,-9c0,-4.96094 -3.14062,-9 -7,-9zM11,20c2.75781,0 5,3.14063 5,7c0,3.85938 -2.24219,7 -5,7c-2.75781,0 -5,-3.14062 -5,-7c0,-3.85937 2.24219,-7 5,-7zM53,20c2.75781,0 5,3.14063 5,7c0,3.85938 -2.24219,7 -5,7c-2.75781,0 -5,-3.14062 -5,-7c0,-3.85937 2.24219,-7 5,-7zM33,21.93359c-0.88281,-0.00391 -1.76172,0.11328 -2.62109,0.34375c-2.46094,0.66016 -4.51562,2.46484 -5.63281,4.95313l-2.35156,5.21094c-0.78906,1.74609 -2.14844,3.21875 -3.82812,4.14844l-5.97656,3.30078c-1.6875,0.92969 -2.97266,2.25781 -3.71094,3.83984c-1.78906,3.82422 -0.98438,8.40234 2,11.39063c1.49219,1.48828 3.375,2.46094 5.44531,2.80859c0.90625,0.15234 1.87891,0.12109 2.97266,-0.09766l3.91016,-0.78516c6.5,-1.29687 13.08984,-1.29687 19.58594,0l3.91016,0.78516c0.64453,0.12891 1.24219,0.19141 1.8125,0.19141c0.39844,0 0.78516,-0.03125 1.16016,-0.09375c2.07031,-0.34766 3.95313,-1.32031 5.44531,-2.80859c2.98438,-2.98828 3.78906,-7.56641 2,-11.39062c-0.74219,-1.58203 -2.02344,-2.91016 -3.70703,-3.83984l-5.98437,-3.30859c-1.67578,-0.92578 -3.03516,-2.39844 -3.82422,-4.14453l-2.35156,-5.21094c-1.12109,-2.48437 -3.17578,-4.28906 -5.63281,-4.94922c-0.85937,-0.23047 -1.73828,-0.34375 -2.62109,-0.34375zM33,24.06641c0.69531,0.00391 1.39063,0.09375 2.06641,0.27734c1.83984,0.49219 3.38281,1.86328 4.24219,3.76172l2.34766,5.21094c0.98047,2.16406 2.66016,3.98828 4.73828,5.13672l5.98438,3.30859c1.28906,0.71094 2.25781,1.70313 2.80469,2.875c1.41016,3.01172 0.77734,6.61719 -1.57422,8.97266c-1.17578,1.17188 -2.65625,1.9375 -4.28516,2.21094c-0.64844,0.10938 -1.36719,0.07813 -2.19922,-0.08594l-3.91016,-0.78125c-6.77734,-1.35547 -13.64844,-1.35547 -20.42578,0l-3.91406,0.78125c-0.83203,0.16406 -1.55078,0.19531 -2.19531,0.08594c-1.62891,-0.27344 -3.11328,-1.03906 -4.28906,-2.21094c-2.35156,-2.35547 -2.98828,-5.96094 -1.57812,-8.97266c0.55078,-1.17187 1.51953,-2.16406 2.80859,-2.875l5.98438,-3.30469c2.07813,-1.14844 3.76172,-2.97266 4.73828,-5.14062l2.34766,-5.20703c0.85938,-1.90234 2.40625,-3.27344 4.24609,-3.76562c0.67578,-0.18359 1.37109,-0.27734 2.0625,-0.27734zM33.21094,26.20703c-0.35156,-0.00391 -0.70312,0.03516 -1.04297,0.12109c-0.57422,0.14063 -0.92187,0.72266 -0.77734,1.29688c0.14453,0.57031 0.72656,0.92188 1.29688,0.77734c0.32031,-0.08203 0.65625,-0.07422 0.98438,0.01953c0.40234,0.11719 0.76953,0.44922 0.97266,0.88672l0.43359,0.92578c0.18359,0.39063 0.57031,0.62109 0.96875,0.62109c0.15234,0 0.30859,-0.03516 0.45313,-0.10547c0.53125,-0.24609 0.76563,-0.88281 0.51563,-1.41797l-0.4375,-0.92578c-0.46875,-1.00781 -1.3125,-1.75 -2.31641,-2.03906c-0.34766,-0.09766 -0.69922,-0.15234 -1.05078,-0.16016zM37.89063,32.64063c-0.14062,0.00391 -0.28125,0.03516 -0.41406,0.09375c-0.53906,0.24609 -0.77734,0.87891 -0.53516,1.41797l0.90625,2.00391c0.26563,0.58984 0.58203,1.15625 0.94531,1.6875c0.20703,0.30469 0.54297,0.46875 0.88281,0.46875c0.21094,0 0.41797,-0.0625 0.60547,-0.1875c0.48438,-0.33594 0.60938,-1 0.27734,-1.48437c-0.29297,-0.42969 -0.54687,-0.88672 -0.76172,-1.35937l-0.90625,-2.01172c-0.18359,-0.40234 -0.58203,-0.64062 -1,-0.62891zM13,46c-0.55078,0 -1,0.44922 -1,1v2c0,0.55078 0.44922,1 1,1c0.55078,0 1,-0.44922 1,-1v-2c0,-0.55078 -0.44922,-1 -1,-1zM18,46c-0.55078,0 -1,0.44922 -1,1v2c0,0.55078 0.44922,1 1,1c0.55078,0 1,-0.44922 1,-1v-2c0,-0.55078 -0.44922,-1 -1,-1zM23,46c-0.55078,0 -1,0.44922 -1,1v2c0,0.55078 0.44922,1 1,1c0.55078,0 1,-0.44922 1,-1v-2c0,-0.55078 -0.44922,-1 -1,-1zM28,46c-0.55078,0 -1,0.44922 -1,1v2c0,0.55078 0.44922,1 1,1c0.55078,0 1,-0.44922 1,-1v-2c0,-0.55078 -0.44922,-1 -1,-1zM33,46c-0.55078,0 -1,0.44922 -1,1v2c0,0.55078 0.44922,1 1,1c0.55078,0 1,-0.44922 1,-1v-2c0,-0.55078 -0.44922,-1 -1,-1zM38,46c-0.55078,0 -1,0.44922 -1,1v2c0,0.55078 0.44922,1 1,1c0.55078,0 1,-0.44922 1,-1v-2c0,-0.55078 -0.44922,-1 -1,-1zM43,46c-0.55078,0 -1,0.44922 -1,1v2c0,0.55078 0.44922,1 1,1c0.55078,0 1,-0.44922 1,-1v-2c0,-0.55078 -0.44922,-1 -1,-1zM48,46c-0.55078,0 -1,0.44922 -1,1v2c0,0.55078 0.44922,1 1,1c0.55078,0 1,-0.44922 1,-1v-2c0,-0.55078 -0.44922,-1 -1,-1zM53,46c-0.55078,0 -1,0.44922 -1,1v2c0,0.55078 0.44922,1 1,1c0.55078,0 1,-0.44922 1,-1v-2c0,-0.55078 -0.44922,-1 -1,-1z"></path></g></g>
</svg>


