<svg xmlns="http://www.w3.org/2000/svg" x="0px" y="0px"
width="100" height="100"
viewBox="0,0,256,256">
<g fill="#ff9856" fill-rule="nonzero" stroke="none" stroke-width="1" stroke-linecap="butt" stroke-linejoin="miter" stroke-miterlimit="10" stroke-dasharray="" stroke-dashoffset="0" font-family="none" font-weight="none" font-size="none" text-anchor="none" style="mix-blend-mode: normal"><g transform="scale(4,4)"><path d="M8,6c-1.103,0 -2,0.897 -2,2v48c0,1.103 0.897,2 2,2h48c1.103,0 2,-0.897 2,-2v-48c0,-1.103 -0.897,-2 -2,-2zM8,8h48l0.00195,48h-48.00195zM32,11c-4.962,0 -9,4.486 -9,10c0,2.61825 0.63594,5.30766 1.75977,7.56055l-8.55469,4.27734c-2.555,1.278 -4.20508,3.92319 -4.20508,6.74219v5.11133c0,1.273 1.0527,2.30859 2.3457,2.30859h35.30859c1.293,0 2.3457,-1.03464 2.3457,-2.30664v-5.12109c0,-2.814 -1.64631,-5.45828 -4.19531,-6.73828l-8.55469,-4.29492c1.11725,-2.24862 1.75,-4.92897 1.75,-7.53906c0,-5.514 -4.038,-10 -9,-10zM32,13c4.324,0 7,4.153 7,8c0,5.203 -2.875,11 -7,11c-4.125,0 -7,-5.797 -7,-11c0,-3.847 2.676,-8 7,-8zM38.23047,30.26367l8.67773,4.35742c1.879,0.943 3.0918,2.88522 3.0918,4.94922v5.12109c0,0.159 -0.1677,0.30859 -0.3457,0.30859h-35.30859c-0.178,0 -0.3457,-0.14864 -0.3457,-0.30664v-5.11328c0,-2.068 1.21661,-4.01212 3.09961,-4.95312l8.68359,-4.3418c1.55717,2.22259 3.6885,3.71484 6.2168,3.71484c2.53619,0 4.67208,-1.50217 6.23047,-3.73633zM12,49c-0.552,0 -1,0.448 -1,1v2c0,0.552 0.448,1 1,1c0.552,0 1,-0.448 1,-1v-2c0,-0.552 -0.448,-1 -1,-1zM17,49c-0.552,0 -1,0.448 -1,1v2c0,0.552 0.448,1 1,1c0.552,0 1,-0.448 1,-1v-2c0,-0.552 -0.448,-1 -1,-1zM22,49c-0.552,0 -1,0.448 -1,1v2c0,0.552 0.448,1 1,1c0.552,0 1,-0.448 1,-1v-2c0,-0.552 -0.448,-1 -1,-1zM27,49c-0.552,0 -1,0.448 -1,1v2c0,0.552 0.448,1 1,1c0.552,0 1,-0.448 1,-1v-2c0,-0.552 -0.448,-1 -1,-1zM32,49c-0.552,0 -1,0.448 -1,1v2c0,0.552 0.448,1 1,1c0.552,0 1,-0.448 1,-1v-2c0,-0.552 -0.448,-1 -1,-1zM37,49c-0.552,0 -1,0.448 -1,1v2c0,0.552 0.448,1 1,1c0.552,0 1,-0.448 1,-1v-2c0,-0.552 -0.448,-1 -1,-1zM42,49c-0.552,0 -1,0.448 -1,1v2c0,0.552 0.448,1 1,1c0.552,0 1,-0.448 1,-1v-2c0,-0.552 -0.448,-1 -1,-1zM47,49c-0.552,0 -1,0.448 -1,1v2c0,0.552 0.448,1 1,1c0.552,0 1,-0.448 1,-1v-2c0,-0.552 -0.448,-1 -1,-1zM52,49c-0.552,0 -1,0.448 -1,1v2c0,0.552 0.448,1 1,1c0.552,0 1,-0.448 1,-1v-2c0,-0.552 -0.448,-1 -1,-1z"></path></g></g>
</svg>