<svg xmlns="http://www.w3.org/2000/svg" x="0px" y="0px"
width="100" height="100"
viewBox="0,0,256,256">
<g fill="#ff9856" fill-rule="nonzero" stroke="none" stroke-width="1" stroke-linecap="butt" stroke-linejoin="miter" stroke-miterlimit="10" stroke-dasharray="" stroke-dashoffset="0" font-family="none" font-weight="none" font-size="none" text-anchor="none" style="mix-blend-mode: normal"><g transform="scale(4,4)"><path d="M17.89063,7.08789c-9.865,0 -17.89062,8.02563 -17.89062,17.89063c0,5.194 2.75922,10.8412 8.19922,16.7832c6.839,7.518 16.13445,13.60931 21.06445,16.57031c0.816,0.494 1.75108,0.75586 2.70508,0.75586h0.0625c0.954,0 1.89012,-0.25995 2.70313,-0.75195c4.933,-2.963 14.2265,-9.05627 21.0625,-16.57227c5.443,-5.944 8.20313,-11.59116 8.20313,-16.78516c0,-9.865 -8.02562,-17.89063 -17.89062,-17.89063c-4.733,0 -9.19255,1.83397 -12.56055,5.16797c-0.272,0.271 -1.00783,0.83203 -1.54883,0.83203c-0.541,0 -1.27773,-0.56094 -1.55273,-0.83594c-3.365,-3.33 -7.82364,-5.16406 -12.55664,-5.16406zM17.89063,9.08789c4.203,0 8.16248,1.62903 11.14648,4.58203c0.236,0.237 1.49189,1.41797 2.96289,1.41797c1.471,0 2.72698,-1.18106 2.95898,-1.41406c2.988,-2.957 6.94739,-4.58594 11.15039,-4.58594c8.762,0 15.89063,7.12863 15.89063,15.89063c0,4.677 -2.58364,9.86955 -7.68164,15.43555c-6.914,7.603 -16.72019,13.86503 -20.61719,16.20703c-0.509,0.309 -1.07436,0.4618 -1.69336,0.4668h-0.00781h-0.00781c-0.63,0 -1.18327,-0.15775 -1.69727,-0.46875c-3.895,-2.34 -13.70019,-8.60203 -20.61719,-16.20703c-5.095,-5.564 -7.67773,-10.75559 -7.67773,-15.43359c0,-8.762 7.12863,-15.89063 15.89063,-15.89063zM46,12.08789c-0.552,0 -1,0.447 -1,1c0,0.553 0.448,1 1,1c1.117,0 2.21848,0.16614 3.27148,0.49414c0.099,0.03 0.19888,0.04492 0.29688,0.04492c0.426,0 0.82108,-0.27412 0.95508,-0.70312c0.164,-0.527 -0.1302,-1.08795 -0.6582,-1.25195c-1.246,-0.388 -2.54623,-0.58398 -3.86523,-0.58398zM52.84961,14.36133c-0.25263,0.04087 -0.48889,0.17884 -0.65039,0.40234c-0.323,0.448 -0.22144,1.07153 0.22656,1.39453c2.115,1.524 3.624,3.74867 4.25,6.26367c0.113,0.455 0.52075,0.75977 0.96875,0.75977c0.08,0 0.16119,-0.0103 0.24219,-0.0293c0.536,-0.134 0.86151,-0.67789 0.72852,-1.21289c-0.74,-2.974 -2.52153,-5.6033 -5.01953,-7.4043c-0.224,-0.16 -0.49347,-0.2147 -0.74609,-0.17383zM28.5,19c-1.93,0 -3.5,1.93931 -3.5,4.32031c0,2.381 1.57,4.31836 3.5,4.31836c1.93,0 3.5,-1.93931 3.5,-4.32031c0,-2.381 -1.57,-4.31836 -3.5,-4.31836zM36.5,19c-1.93,0 -3.5,1.93931 -3.5,4.32031c0,2.381 1.57,4.31836 3.5,4.31836c1.93,0 3.5,-1.93931 3.5,-4.32031c0,-2.381 -1.57,-4.31836 -3.5,-4.31836zM28.5,21c0.799,0 1.5,1.08336 1.5,2.31836c0,1.235 -0.701,2.32031 -1.5,2.32031c-0.799,0 -1.5,-1.08531 -1.5,-2.32031c0,-1.235 0.701,-2.31836 1.5,-2.31836zM36.5,21c0.799,0 1.5,1.08336 1.5,2.31836c0,1.235 -0.701,2.32031 -1.5,2.32031c-0.799,0 -1.5,-1.08531 -1.5,-2.32031c0,-1.235 0.701,-2.31836 1.5,-2.31836zM22.5,25.63867c-1.93,0 -3.5,1.93736 -3.5,4.31836c0,2.381 1.57,4.32031 3.5,4.32031c1.93,0 3.5,-1.93931 3.5,-4.32031c0,-2.381 -1.57,-4.31836 -3.5,-4.31836zM42.5,25.70117c-1.93,0 -3.5,1.93831 -3.5,4.32031c0,2.38 1.57,4.31836 3.5,4.31836c1.93,0 3.5,-1.93836 3.5,-4.31836c0,-2.381 -1.57,-4.32031 -3.5,-4.32031zM22.5,27.63867c0.799,0 1.5,1.08336 1.5,2.31836c0,1.235 -0.701,2.32031 -1.5,2.32031c-0.799,0 -1.5,-1.08531 -1.5,-2.32031c0,-1.235 0.701,-2.31836 1.5,-2.31836zM42.5,27.70117c0.799,0 1.5,1.08336 1.5,2.31836c0,1.235 -0.701,2.31836 -1.5,2.31836c-0.799,0 -1.5,-1.08336 -1.5,-2.31836c0,-1.235 0.701,-2.31836 1.5,-2.31836zM32.45313,29c-1.979,0.091 -2.70859,1.15866 -3.43359,3.22266c-0.264,0.748 -0.87784,1.16258 -1.58984,1.64258c-1.026,0.693 -2.42969,1.64266 -2.42969,3.72266c0,2.108 2.0203,4.6543 4.5293,4.6543c0.966,0 1.69952,-0.20647 2.22852,-0.35547c0.315,-0.086 0.53719,-0.13616 0.74219,-0.16016c0.204,0.024 0.42733,0.0722 0.73633,0.1582c0.536,0.151 1.27137,0.35742 2.23438,0.35742c2.508,0 4.5293,-2.5463 4.5293,-4.6543c0,-2.081 -1.40564,-3.02966 -2.43164,-3.72266c-0.712,-0.48 -1.32489,-0.89462 -1.58789,-1.64062c-0.725,-2.067 -1.45634,-3.13361 -3.52734,-3.22461zM32.45313,30.99805c0.702,0.033 0.99363,0.04662 1.64063,1.89063c0.483,1.37 1.52147,2.07176 2.35547,2.63477c0.99,0.668 1.55078,1.09345 1.55078,2.06445c0,1.159 -1.2263,2.6543 -2.5293,2.6543c-0.687,0 -1.19822,-0.14416 -1.69922,-0.28516c-0.336,-0.092 -0.73964,-0.19242 -1.18164,-0.23242l-0.08984,-0.00781l-0.0918,0.00781c-0.441,0.04 -0.84545,0.14133 -1.18945,0.23633c-0.47,0.133 -1.00145,0.28125 -1.68945,0.28125c-1.302,0 -2.5293,-1.4953 -2.5293,-2.6543c0,-0.971 0.56078,-1.39745 1.55078,-2.06445c0.834,-0.564 1.87147,-1.26472 2.35547,-2.63672c0.647,-1.842 0.93688,-1.85667 1.54688,-1.88867zM13.02734,34.04492c-0.25512,-0.019 -0.51706,0.06023 -0.72656,0.24023l-1.51562,1.30469c-0.418,0.36 -0.46547,0.99216 -0.10547,1.41016c0.197,0.23 0.47681,0.34766 0.75781,0.34766c0.23,0 0.46234,-0.07819 0.65234,-0.24219l1.51563,-1.30469c0.418,-0.36 0.46547,-0.99216 0.10547,-1.41016c-0.18,-0.209 -0.42847,-0.3267 -0.68359,-0.3457zM16.33789,37.66602c-0.25587,-0.0025 -0.51344,0.09216 -0.71094,0.28516l-1.42773,1.40039c-0.394,0.387 -0.39967,1.02102 -0.01367,1.41602c0.196,0.2 0.45389,0.29883 0.71289,0.29883c0.252,0 0.50517,-0.09416 0.70117,-0.28516l1.42774,-1.40039c0.394,-0.387 0.40162,-1.01906 0.01563,-1.41406c-0.194,-0.197 -0.4492,-0.29828 -0.70508,-0.30078zM19.91602,41.00781c-0.2555,0.01387 -0.50545,0.12603 -0.68945,0.33203l-1.33594,1.48828c-0.369,0.411 -0.33288,1.04311 0.07813,1.41211c0.191,0.171 0.42802,0.25391 0.66602,0.25391c0.274,0 0.54809,-0.11303 0.74609,-0.33203l1.33398,-1.48828c0.369,-0.411 0.33483,-1.04311 -0.07617,-1.41211c-0.206,-0.1845 -0.46716,-0.26778 -0.72266,-0.25391zM23.68164,44.12109c-0.25412,0.03037 -0.49697,0.1575 -0.66797,0.375l-1.23633,1.57227c-0.341,0.434 -0.26603,1.0633 0.16797,1.4043c0.183,0.144 0.40314,0.21484 0.61914,0.21484c0.296,0 0.58816,-0.13181 0.78516,-0.38281l1.23633,-1.57227c0.341,-0.434 0.26603,-1.0633 -0.16797,-1.4043c-0.2165,-0.171 -0.4822,-0.23741 -0.73633,-0.20703zM27.625,47.01367c-0.2515,0.04688 -0.48608,0.19047 -0.64258,0.41797l-1.13086,1.64844c-0.313,0.455 -0.19819,1.07762 0.25781,1.39063c0.173,0.119 0.36945,0.17578 0.56445,0.17578c0.319,0 0.63217,-0.15159 0.82617,-0.43359l1.13086,-1.64844c0.313,-0.455 0.19819,-1.07762 -0.25781,-1.39062c-0.2275,-0.157 -0.49655,-0.20703 -0.74805,-0.16016zM32.12695,49.58984c-0.38606,-0.05288 -0.78384,0.12302 -0.99609,0.47852l-1.02344,1.71875c-0.282,0.475 -0.12734,1.08809 0.34766,1.37109c0.161,0.096 0.33772,0.14063 0.51172,0.14063c0.341,0 0.67237,-0.17328 0.85938,-0.48828l1.02344,-1.71875c0.282,-0.475 0.12734,-1.08809 -0.34766,-1.37109c-0.11875,-0.0705 -0.24631,-0.11323 -0.375,-0.13086z"></path></g></g>
</svg>