<svg width="49" height="69" viewBox="0 0 49 69" fill="none" xmlns="http://www.w3.org/2000/svg">
<path d="M3.40029 68.9661H2.45869L2.17875 68.0754C-7.16094 37.5369 15.5393 23.6673 32.1319 13.5387C38.316 9.77232 43.6347 6.51488 45.5434 3.33379L47.5538 0L47.9101 3.89366C49.3098 19.7482 49.717 42.4739 36.8399 56.5216C29.2817 64.767 18.0333 68.9661 3.40029 68.9661ZM16.6591 58.1758C13.8343 61.1024 10.8059 63.8254 7.57388 66.294C19.4075 65.5814 28.62 61.7132 34.9822 54.7657C46.3577 42.3212 46.7649 22.3185 45.6452 7.20199C42.8458 9.97591 38.4177 12.6735 33.4807 15.6764C17.9315 25.1942 -3.26728 38.1477 4.16375 65.6323C7.75202 63.1129 11.0858 60.2117 14.1906 57.0815L10.7295 45.0188L13.1726 44.3317L16.201 54.9693C19.9674 50.8975 23.3521 46.5203 26.355 42.0922L23.0976 29.0625L25.5661 28.4517L28.2637 39.2165C31.9029 33.5414 34.9313 27.8918 37.3489 22.8784L39.6393 23.9727C37.1708 29.1134 34.0406 34.9157 30.2742 40.7434L38.0869 38.1477L38.9013 40.5653L27.9838 44.2044C25.388 47.9709 22.5377 51.6864 19.4075 55.2238L27.6784 54.0277L28.0347 56.5471L16.6591 58.1758Z" fill="#FE7620"/>
<path d="M7.5 13.5L47 65" stroke="#FF0000" stroke-width="2.5" stroke-linecap="round"/>
</svg>
