<svg xmlns="http://www.w3.org/2000/svg" x="0px" y="0px"
width="100" height="100"
viewBox="0,0,256,256">
<g fill="#ff9856" fill-rule="nonzero" stroke="none" stroke-width="1" stroke-linecap="butt" stroke-linejoin="miter" stroke-miterlimit="10" stroke-dasharray="" stroke-dashoffset="0" font-family="none" font-weight="none" font-size="none" text-anchor="none" style="mix-blend-mode: normal"><g transform="scale(4,4)"><path d="M28.1875,2.11719c-0.25781,-0.00391 -0.51562,0.08984 -0.71484,0.28125l-2.87891,2.78125c-0.39453,0.38281 -0.40625,1.01563 -0.01953,1.41406c0.19531,0.19922 0.45313,0.30469 0.71875,0.30469c0.25,0 0.5,-0.09375 0.69141,-0.28125l2.87891,-2.78125c0.39844,-0.38281 0.40625,-1.01562 0.02344,-1.41406c-0.19141,-0.19531 -0.44531,-0.29687 -0.69922,-0.30469zM15.73047,6c-2.19531,0 -4.13672,0.70313 -5.32422,1.92969l-0.11719,0.11719c-1.42969,1.46094 -4.78125,4.88672 -4.78125,11.61719c0,5.77734 3.43359,11.35938 5.47656,14.17578l0.07813,0.10156c0.04688,0.0625 0.12891,0.18359 0.25,0.35938c6.49219,9.46875 14.51563,16.53906 22.60156,19.90625c7.17578,2.99219 10.97266,3.78906 13.57031,3.78906c1.09766,0 1.98047,-0.14062 2.81641,-0.32031c3.72656,-0.80859 8.35156,-3.55078 9.57813,-7.04687c1,-2.83984 1.30859,-6.03516 0.69531,-7.11328c-0.40625,-0.71875 -1.15625,-1.08203 -2.19531,-1.58594c-0.22656,-0.10937 -0.47266,-0.22656 -0.73828,-0.36328c-0.07812,-0.03906 -7.67578,-3.84375 -9.07812,-4.33203c-1.76172,-0.67187 -3.32422,-0.19531 -4.40234,1.33984l-0.55078,0.78125c-1.06641,1.50391 -2.07422,2.92578 -2.89062,3.80859c-0.51953,0.55859 -1.41016,0.53516 -2.05859,0.26563l-0.41797,-0.17187c-1.74609,-0.71094 -5.37891,-2.1875 -9.87109,-6.21094c-3.59375,-3.21875 -6.17187,-7.30078 -7.10937,-8.89453c-0.39062,-0.67187 -0.22656,-0.91406 0.44141,-1.70312c0.35938,-0.44922 0.71094,-0.82422 1.0625,-1.19922c0.29297,-0.30859 0.58203,-0.61719 0.875,-0.96094l0.13672,-0.15234c0.58984,-0.69141 1.01563,-1.1875 1.45313,-2.12109c0.73438,-1.4375 0.05078,-2.86719 -0.17187,-3.33984c-0.22266,-0.46484 -1.76562,-4.23047 -2.89062,-6.98047l-1.14062,-2.78125l-0.00391,-0.00391c-1.0625,-2.5625 -2.125,-2.78906 -3.72656,-2.85547c-0.46484,-0.02734 -0.98828,-0.05469 -1.56641,-0.05469zM34.73438,7.54688c-0.12891,0 -0.26172,0.02344 -0.39062,0.07422l-5.5625,2.24609c-0.51562,0.20703 -0.75781,0.79297 -0.55078,1.30469c0.15625,0.39063 0.53125,0.625 0.92578,0.625c0.125,0 0.25,-0.02344 0.375,-0.07422l5.5625,-2.24609c0.51172,-0.20703 0.75781,-0.78906 0.55078,-1.30469c-0.15234,-0.38281 -0.51953,-0.61719 -0.91016,-0.625zM16.08594,8.00781c0.39453,0.00781 0.76563,0.02344 1.11328,0.04297c1.09766,0.04688 1.32813,0.05469 1.97656,1.62109l1.14063,2.78125c1.52344,3.72266 2.70703,6.60547 2.93359,7.08203c0.33984,0.71094 0.39844,1.17969 0.1875,1.60156c-0.33984,0.71875 -0.62109,1.04297 -1.17578,1.69141l-0.04687,0.05859zM14.03516,8.1875c0.01563,0.06641 0.01172,0.13281 0.03906,0.19531l6.64453,16.13672c-0.19141,0.21484 -0.38672,0.44141 -0.59375,0.69531c-0.63672,0.75391 -1.70703,2.01563 -0.59375,3.94141c1.22656,2.09375 3.83594,6.09766 7.50391,9.38281c4.75,4.25391 8.74609,5.87891 10.44922,6.57031l0.40234,0.16797c1.57422,0.65625 3.26172,0.36328 4.30078,-0.75391c0.57422,-0.62109 1.21094,-1.45703 1.875,-2.37109l14.16016,7.07813c-0.07031,0.24219 -0.14062,0.48438 -0.23047,0.73828c-0.9375,2.66797 -4.94141,5.0625 -8.11328,5.75c-1.98828,0.42578 -4.71875,1.01172 -15.19531,-3.35937c-7.73047,-3.22266 -15.44531,-10.03516 -21.71875,-19.1875c-0.14844,-0.21484 -0.25391,-0.36328 -0.29297,-0.41797l-0.06641,-0.09375c-1.90234,-2.61719 -5.09766,-7.78516 -5.09766,-13c0,-5.91406 2.84375,-8.82031 4.21094,-10.21484l0.12109,-0.125c0.50781,-0.52344 1.28125,-0.91406 2.19531,-1.13281zM29.78125,16.00391c-0.55469,0 -1,0.44922 -1,1c0,0.55469 0.44531,1 1,1h4c0.55078,0 1,-0.44531 1,-1c0,-0.55078 -0.44922,-1 -1,-1zM17.64844,30.66016c-0.12891,0.01563 -0.25781,0.05859 -0.375,0.12891c-0.47656,0.28125 -0.63672,0.89453 -0.35547,1.36719c0.32813,0.5625 0.91406,1.42188 1.57031,2.30469c0.19531,0.26563 0.5,0.40234 0.80469,0.40234c0.20703,0 0.41406,-0.0625 0.59375,-0.19531c0.44531,-0.32812 0.53906,-0.95703 0.20703,-1.39844c-0.91016,-1.23047 -1.33984,-1.9375 -1.45312,-2.125c-0.20703,-0.35937 -0.60547,-0.53516 -0.99219,-0.48437zM22.0625,36.20313c-0.25781,-0.01562 -0.51953,0.06641 -0.72266,0.25c-0.41406,0.36328 -0.45312,0.99609 -0.08594,1.41016c1.15625,1.30469 2.33594,2.5 3.50781,3.54688c2.74609,2.46094 5.50781,4.41406 8.21094,5.80469c0.14453,0.07422 0.30469,0.10938 0.45703,0.10938c0.36328,0 0.71094,-0.19531 0.88672,-0.54297c0.25781,-0.48828 0.0625,-1.09375 -0.42578,-1.34375c-2.55469,-1.31641 -5.17578,-3.17187 -7.79687,-5.51562c-1.11328,-1 -2.23828,-2.13672 -3.34375,-3.38672c-0.18359,-0.20312 -0.43359,-0.32031 -0.6875,-0.33203zM46.95313,38.94141c0.27344,-0.01953 0.57422,0.03906 0.92188,0.16797c1.07422,0.375 6.95703,3.28516 8.85938,4.24609c0.27734,0.13672 0.53516,0.26172 0.77344,0.37891c0.54688,0.26172 1.22656,0.58984 1.30469,0.71875c0.10547,0.28516 0.13281,1.33594 -0.10937,2.78125l-13.45703,-6.73047l0.55078,-0.77344c0.34375,-0.49219 0.70703,-0.75 1.15625,-0.78906z"></path></g></g>
</svg>