<svg xmlns="http://www.w3.org/2000/svg" x="0px" y="0px"
width="100" height="100"
viewBox="0,0,256,256">
<g fill="#ff9856" fill-rule="nonzero" stroke="none" stroke-width="1" stroke-linecap="butt" stroke-linejoin="miter" stroke-miterlimit="10" stroke-dasharray="" stroke-dashoffset="0" font-family="none" font-weight="none" font-size="none" text-anchor="none" style="mix-blend-mode: normal"><g transform="scale(3.2,3.2)"><path d="M40,7c-0.55228,0 -1,0.44772 -1,1c0,0.55228 0.44772,1 1,1c0.55228,0 1,-0.44772 1,-1c0,-0.55228 -0.44772,-1 -1,-1zM35.79297,7.27539c-0.03331,0.00094 -0.06656,0.00355 -0.09961,0.00781c-0.26323,0.03451 -0.50194,0.17228 -0.66351,0.38294c-0.16157,0.21066 -0.23274,0.47693 -0.19782,0.74011c0.07287,0.54655 0.57438,0.93098 1.12109,0.85938c0.54734,-0.0719 0.93288,-0.57371 0.86133,-1.12109c-0.06694,-0.50895 -0.50838,-0.88455 -1.02148,-0.86914zM44.13672,7.27734c-0.48568,0.01948 -0.88701,0.38537 -0.95117,0.86719c-0.03492,0.26318 0.03625,0.52944 0.19782,0.74011c0.16157,0.21066 0.40028,0.34843 0.66351,0.38294c0.54738,0.07155 1.0492,-0.31399 1.12109,-0.86133c0.07155,-0.54738 -0.31399,-1.0492 -0.86133,-1.12109c-0.05632,-0.00743 -0.11316,-0.01004 -0.16992,-0.00781zM31.72656,8.08984c-0.02345,-0.00017 -0.0469,0.00048 -0.07031,0.00195c-0.0667,0.00445 -0.13279,0.01557 -0.19727,0.0332c-0.53337,0.14298 -0.84989,0.69121 -0.70703,1.22461c0.14298,0.53337 0.69121,0.84989 1.22461,0.70703c0.53337,-0.14298 0.84989,-0.69121 0.70703,-1.22461c-0.11589,-0.43441 -0.50745,-0.73806 -0.95703,-0.74219zM48.27344,8.0918c-0.44903,0.00388 -0.8404,0.3066 -0.95703,0.74023c-0.14286,0.5334 0.17366,1.08163 0.70703,1.22461c0.5334,0.14286 1.08163,-0.17366 1.22461,-0.70703c0.14286,-0.5334 -0.17366,-1.08163 -0.70703,-1.22461c-0.08728,-0.0231 -0.1773,-0.03427 -0.26758,-0.0332zM27.76172,9.43555c-0.134,-0.00104 -0.26684,0.02487 -0.39062,0.07617c-0.24501,0.10153 -0.43966,0.29623 -0.54112,0.54127c-0.10146,0.24504 -0.10142,0.52035 0.00011,0.76537c0.10153,0.24501 0.29623,0.43966 0.54127,0.54112c0.24504,0.10146 0.52035,0.10142 0.76537,-0.00011c0.24501,-0.10153 0.43966,-0.29623 0.54112,-0.54127c0.10146,-0.24504 0.10142,-0.52035 -0.00011,-0.76537c-0.15372,-0.37099 -0.51445,-0.61405 -0.91602,-0.61719zM52.26758,9.43555c-0.41221,-0.00882 -0.78757,0.23625 -0.94531,0.61719c-0.21012,0.50968 0.03188,1.09327 0.54102,1.30469c0.24501,0.10153 0.52033,0.10157 0.76537,0.00011c0.24504,-0.10146 0.43974,-0.29611 0.54127,-0.54112c0.10153,-0.24501 0.10157,-0.52033 0.00011,-0.76537c-0.10146,-0.24504 -0.29611,-0.43974 -0.54112,-0.54127c-0.1148,-0.04693 -0.23733,-0.0721 -0.36133,-0.07422zM23.97656,11.28711c-0.16764,0.00425 -0.33152,0.0506 -0.47656,0.13477c-0.47824,0.27572 -0.6426,0.88681 -0.36719,1.36523c0.13274,0.22987 0.35143,0.39752 0.60788,0.46603c0.25645,0.06851 0.52961,0.03225 0.75931,-0.1008c0.47753,-0.27639 0.64097,-0.88733 0.36523,-1.36524c-0.18262,-0.31652 -0.52334,-0.50822 -0.88867,-0.5zM55.95313,11.28906c-0.34083,0.01581 -0.65008,0.2043 -0.82031,0.5c-0.27541,0.47842 -0.11105,1.08951 0.36719,1.36524c0.47791,0.27574 1.08884,0.1123 1.36523,-0.36524c0.13304,-0.22969 0.1693,-0.50286 0.1008,-0.75931c-0.06851,-0.25645 -0.23617,-0.47514 -0.46603,-0.60788c-0.16582,-0.09571 -0.35563,-0.14181 -0.54687,-0.13281zM40,12c-15.45213,0 -28,12.54787 -28,28c0,15.45213 12.54787,28 28,28c15.45213,0 28,-12.54787 28,-28c0,-15.45213 -12.54787,-28 -28,-28zM20.53711,13.61133c-0.0241,-0.00022 -0.04821,0.00043 -0.07227,0.00195c-0.20067,0.01126 -0.39328,0.08273 -0.55273,0.20508c-0.21062,0.16132 -0.34851,0.39972 -0.38331,0.66273c-0.0348,0.26301 0.03634,0.52907 0.19776,0.73961c0.16161,0.21032 0.40015,0.34783 0.66314,0.38226c0.263,0.03443 0.5289,-0.03703 0.7392,-0.19867c0.21062,-0.16132 0.34851,-0.39972 0.38331,-0.66273c0.0348,-0.26301 -0.03634,-0.52907 -0.19776,-0.73961c-0.18593,-0.242 -0.4722,-0.38585 -0.77734,-0.39062zM59.46289,13.61133c-0.30515,0.00477 -0.59141,0.14862 -0.77734,0.39063c-0.16142,0.21054 -0.23256,0.4766 -0.19776,0.73961c0.0348,0.26301 0.17269,0.50141 0.38331,0.66273c0.21054,0.16142 0.4766,0.23256 0.73961,0.19776c0.26301,-0.0348 0.50141,-0.17269 0.66273,-0.38331c0.16142,-0.21054 0.23256,-0.4766 0.19776,-0.73961c-0.0348,-0.26301 -0.17269,-0.50141 -0.38331,-0.66273c-0.17925,-0.13688 -0.3995,-0.20915 -0.625,-0.20508zM40,14c14.37125,0 26,11.62875 26,26c0,14.37125 -11.62875,26 -26,26c-14.37125,0 -26,-11.62875 -26,-26c0,-14.37125 11.62875,-26 26,-26zM17.38672,16.37305c-0.26993,-0.00363 -0.52986,0.10204 -0.7207,0.29297c-0.39042,0.39051 -0.39042,1.02356 0,1.41406c0.39051,0.39042 1.02356,0.39042 1.41406,0c0.39042,-0.39051 0.39042,-1.02356 0,-1.41406c-0.18414,-0.18423 -0.4329,-0.28934 -0.69336,-0.29297zM62.64258,16.37305c-0.2706,-0.00416 -0.53134,0.10155 -0.72266,0.29297c-0.39042,0.39051 -0.39042,1.02356 0,1.41406c0.39051,0.39042 1.02356,0.39042 1.41406,0c0.39042,-0.39051 0.39042,-1.02356 0,-1.41406c-0.18366,-0.18377 -0.43163,-0.28884 -0.69141,-0.29297zM65.33398,19.51758c-0.20155,0.01144 -0.39493,0.08361 -0.55469,0.20703c-0.43737,0.3358 -0.52037,0.96227 -0.18555,1.40039c0.16132,0.21062 0.39972,0.34851 0.66273,0.38331c0.26301,0.0348 0.52907,-0.03634 0.73961,-0.19776c0.21062,-0.16132 0.34851,-0.39972 0.38331,-0.66273c0.0348,-0.26301 -0.03634,-0.52907 -0.19776,-0.73961c-0.1795,-0.2342 -0.45328,-0.37716 -0.74805,-0.39062c-0.03318,-0.00165 -0.06643,-0.00165 -0.09961,0zM14.59766,19.51953c-0.30515,0.00477 -0.59141,0.14862 -0.77734,0.39063c-0.16142,0.21054 -0.23256,0.4766 -0.19776,0.73961c0.0348,0.26301 0.17269,0.50141 0.38331,0.66273c0.21054,0.16142 0.4766,0.23256 0.73961,0.19776c0.26301,-0.0348 0.50141,-0.17269 0.66273,-0.38331c0.16142,-0.21054 0.23256,-0.4766 0.19776,-0.73961c-0.0348,-0.26301 -0.17269,-0.50141 -0.38331,-0.66273c-0.17925,-0.13688 -0.3995,-0.20915 -0.625,-0.20508zM67.6875,23c-0.16747,0.00366 -0.33134,0.04933 -0.47656,0.13281c-0.47753,0.27639 -0.64097,0.88733 -0.36523,1.36523c0.27572,0.47824 0.88681,0.6426 1.36523,0.36719c0.22987,-0.13274 0.39752,-0.35143 0.46603,-0.60788c0.06851,-0.25645 0.03225,-0.52961 -0.1008,-0.75931c-0.18312,-0.31577 -0.52375,-0.50667 -0.88867,-0.49805zM12.24023,23.00195c-0.33973,0.01605 -0.64802,0.20367 -0.81836,0.49805c-0.27574,0.47791 -0.1123,1.08884 0.36523,1.36523c0.47791,0.27574 1.08884,0.1123 1.36524,-0.36523c0.27574,-0.47791 0.1123,-1.08884 -0.36524,-1.36523c-0.16582,-0.09571 -0.35563,-0.14181 -0.54687,-0.13281zM69.57227,26.75195c-0.134,-0.00104 -0.26684,0.02487 -0.39062,0.07617c-0.24501,0.10153 -0.43966,0.29623 -0.54112,0.54127c-0.10146,0.24504 -0.10142,0.52035 0.00011,0.76537c0.10153,0.24501 0.29623,0.43966 0.54127,0.54112c0.24504,0.10146 0.52035,0.10142 0.76537,-0.00011c0.24501,-0.10153 0.43966,-0.29623 0.54112,-0.54127c0.10146,-0.24504 0.10142,-0.52035 -0.00011,-0.76537c-0.15372,-0.37099 -0.51445,-0.61405 -0.91602,-0.61719zM10.45703,26.75391c-0.41221,-0.00882 -0.78757,0.23625 -0.94531,0.61719c-0.10153,0.24501 -0.10157,0.52033 -0.00011,0.76537c0.10146,0.24504 0.29611,0.43974 0.54112,0.54127c0.24501,0.10153 0.52033,0.10157 0.76537,0.00011c0.24504,-0.10146 0.43974,-0.29611 0.54127,-0.54112c0.10153,-0.24501 0.10157,-0.52033 0.00011,-0.76537c-0.10146,-0.24504 -0.29611,-0.43974 -0.54112,-0.54127c-0.11467,-0.0476 -0.2372,-0.07343 -0.36133,-0.07617zM9.08008,30.71875c-0.44903,0.00388 -0.8404,0.3066 -0.95703,0.74023c-0.0692,0.25642 -0.03354,0.52984 0.0991,0.75994c0.13264,0.2301 0.35136,0.39799 0.60794,0.46663c0.5334,0.14286 1.08163,-0.17366 1.22461,-0.70703c0.0692,-0.25642 0.03354,-0.52984 -0.0991,-0.75994c-0.13264,-0.2301 -0.35137,-0.39799 -0.60794,-0.46663c-0.08728,-0.0231 -0.1773,-0.03427 -0.26758,-0.0332zM70.91797,30.71875c-0.02345,-0.00017 -0.04691,0.00048 -0.07031,0.00195c-0.0667,0.00445 -0.13279,0.01557 -0.19727,0.0332c-0.53337,0.14298 -0.84989,0.69121 -0.70703,1.22461c0.14298,0.53337 0.69121,0.84989 1.22461,0.70703c0.53337,-0.14298 0.84989,-0.69121 0.70703,-1.22461c-0.11589,-0.43441 -0.50745,-0.73806 -0.95703,-0.74219zM8.23242,34.82617c-0.48568,0.01948 -0.88701,0.38537 -0.95117,0.86719c-0.07278,0.54742 0.31196,1.0502 0.85938,1.12305c0.26318,0.03492 0.52944,-0.03625 0.74011,-0.19782c0.21066,-0.16157 0.34843,-0.40028 0.38294,-0.66351c0.07155,-0.54738 -0.31399,-1.0492 -0.86133,-1.12109c-0.05632,-0.00743 -0.11316,-0.01004 -0.16992,-0.00781zM71.69336,34.82617c-0.03331,0.00094 -0.06656,0.00355 -0.09961,0.00781c-0.54655,0.07287 -0.93098,0.57438 -0.85937,1.12109c0.0719,0.54734 0.57371,0.93288 1.12109,0.86133c0.54734,-0.0719 0.93288,-0.57371 0.86133,-1.12109c-0.06701,-0.50972 -0.5096,-0.88558 -1.02344,-0.86914zM26,36c-2.19729,0 -4,1.80271 -4,4c0,2.19729 1.80271,4 4,4c2.19729,0 4,-1.80271 4,-4c0,-2.19729 -1.80271,-4 -4,-4zM40,36c-2.19729,0 -4,1.80271 -4,4c0,2.19729 1.80271,4 4,4c2.19729,0 4,-1.80271 4,-4c0,-2.19729 -1.80271,-4 -4,-4zM54,36c-2.19729,0 -4,1.80271 -4,4c0,2.19729 1.80271,4 4,4c2.19729,0 4,-1.80271 4,-4c0,-2.19729 -1.80271,-4 -4,-4zM26,38c1.11641,0 2,0.88359 2,2c0,1.11641 -0.88359,2 -2,2c-1.11641,0 -2,-0.88359 -2,-2c0,-1.11641 0.88359,-2 2,-2zM40,38c1.11641,0 2,0.88359 2,2c0,1.11641 -0.88359,2 -2,2c-1.11641,0 -2,-0.88359 -2,-2c0,-1.11641 0.88359,-2 2,-2zM54,38c1.11641,0 2,0.88359 2,2c0,1.11641 -0.88359,2 -2,2c-1.11641,0 -2,-0.88359 -2,-2c0,-1.11641 0.88359,-2 2,-2zM8,39c-0.55228,0 -1,0.44772 -1,1c0,0.55228 0.44772,1 1,1c0.55228,0 1,-0.44772 1,-1c0,-0.55228 -0.44772,-1 -1,-1zM72,39c-0.55228,0 -1,0.44772 -1,1c0,0.55228 0.44772,1 1,1c0.55228,0 1,-0.44772 1,-1c0,-0.55228 -0.44772,-1 -1,-1zM8.24219,43.17773c-0.03331,0.00094 -0.06656,0.00355 -0.09961,0.00781c-0.26323,0.03451 -0.50194,0.17228 -0.66351,0.38294c-0.16157,0.21066 -0.23274,0.47693 -0.19782,0.74011c0.07284,0.54741 0.57563,0.93215 1.12305,0.85938c0.54655,-0.07287 0.93098,-0.57438 0.85938,-1.12109c-0.06694,-0.50895 -0.50838,-0.88455 -1.02148,-0.86914zM71.68555,43.18164c-0.48707,0.0187 -0.8897,0.38585 -0.95312,0.86914c-0.03492,0.26318 0.03625,0.52944 0.19782,0.74011c0.16157,0.21066 0.40028,0.34843 0.66351,0.38294c0.26318,0.03492 0.52944,-0.03625 0.74011,-0.19782c0.21066,-0.16157 0.34843,-0.40028 0.38294,-0.66351c0.03492,-0.26318 -0.03625,-0.52944 -0.19782,-0.74011c-0.16157,-0.21066 -0.40028,-0.34843 -0.66351,-0.38294c-0.05632,-0.00743 -0.11316,-0.01004 -0.16992,-0.00781zM9.12695,47.2832c-0.10006,-0.00386 -0.20014,0.00733 -0.29687,0.0332c-0.53337,0.14298 -0.84989,0.69121 -0.70703,1.22461c0.14298,0.53337 0.69121,0.84989 1.22461,0.70703c0.53337,-0.14298 0.84989,-0.69121 0.70703,-1.22461c-0.11356,-0.42343 -0.48967,-0.72352 -0.92773,-0.74023zM70.89844,47.2832c-0.44958,0.00412 -0.84114,0.30778 -0.95703,0.74219c-0.14286,0.5334 0.17366,1.08163 0.70703,1.22461c0.5334,0.14286 1.08163,-0.17366 1.22461,-0.70703c0.14286,-0.5334 -0.17366,-1.08163 -0.70703,-1.22461c-0.08719,-0.02376 -0.17721,-0.03558 -0.26758,-0.03516zM69.58594,51.24414c-0.41221,-0.00882 -0.78757,0.23625 -0.94531,0.61719c-0.10153,0.24501 -0.10157,0.52033 -0.00011,0.76537c0.10146,0.24504 0.29611,0.43974 0.54112,0.54127c0.24501,0.10153 0.52033,0.10157 0.76537,0.00011c0.24504,-0.10146 0.43974,-0.29611 0.54127,-0.54112c0.10153,-0.24501 0.10157,-0.52033 0.00011,-0.76537c-0.10146,-0.24504 -0.29611,-0.43974 -0.54112,-0.54127c-0.11467,-0.0476 -0.2372,-0.07343 -0.36133,-0.07617zM10.44531,51.24609c-0.134,-0.00104 -0.26683,0.02487 -0.39062,0.07617c-0.24501,0.10153 -0.43966,0.29623 -0.54112,0.54127c-0.10146,0.24504 -0.10142,0.52035 0.00011,0.76537c0.10153,0.24501 0.29623,0.43966 0.54127,0.54112c0.24504,0.10146 0.52035,0.10142 0.76537,-0.00011c0.24501,-0.10153 0.43966,-0.29623 0.54112,-0.54127c0.10146,-0.24504 0.10142,-0.52035 -0.00011,-0.76537c-0.15372,-0.37099 -0.51445,-0.61405 -0.91602,-0.61719zM12.26367,54.99805c-0.16764,0.00425 -0.33152,0.0506 -0.47656,0.13477c-0.47824,0.27572 -0.6426,0.88681 -0.36719,1.36523c0.13242,0.2302 0.35096,0.39827 0.60744,0.46715c0.25648,0.06888 0.52982,0.03292 0.75975,-0.09996c0.22987,-0.13274 0.39752,-0.35143 0.46603,-0.60788c0.06851,-0.25645 0.03225,-0.52961 -0.1008,-0.75931c-0.18262,-0.31652 -0.52334,-0.50822 -0.88867,-0.5zM67.66406,55.00391c-0.33973,0.01605 -0.64802,0.20367 -0.81836,0.49805c-0.27574,0.47791 -0.1123,1.08884 0.36523,1.36523c0.22969,0.13304 0.50286,0.1693 0.75931,0.1008c0.25645,-0.06851 0.47514,-0.23617 0.60788,-0.46603c0.27541,-0.47842 0.11105,-1.08951 -0.36719,-1.36523c-0.16582,-0.09571 -0.35563,-0.14181 -0.54688,-0.13281zM65.37109,58.47656c-0.30446,0.00536 -0.58988,0.14915 -0.77539,0.39063c-0.16163,0.2103 -0.2331,0.4762 -0.19867,0.7392c0.03443,0.263 0.17194,0.50154 0.38226,0.66314c0.2103,0.16163 0.4762,0.2331 0.7392,0.19867c0.263,-0.03443 0.50154,-0.17194 0.66314,-0.38226c0.16142,-0.21054 0.23256,-0.4766 0.19776,-0.73961c-0.0348,-0.26301 -0.17269,-0.50141 -0.38331,-0.66273c-0.17899,-0.13758 -0.39927,-0.21055 -0.625,-0.20703zM14.63086,58.47852c-0.02345,-0.00017 -0.0469,0.00048 -0.07031,0.00195c-0.20134,0.01087 -0.3947,0.08236 -0.55469,0.20508c-0.21062,0.16132 -0.34851,0.39972 -0.38331,0.66273c-0.0348,0.26301 0.03634,0.52907 0.19776,0.73961c0.16161,0.21032 0.40015,0.34783 0.66314,0.38226c0.263,0.03443 0.5289,-0.03703 0.7392,-0.19867c0.21062,-0.16132 0.34851,-0.39972 0.38331,-0.66273c0.0348,-0.26301 -0.03634,-0.52907 -0.19776,-0.73961c-0.18593,-0.242 -0.4722,-0.38585 -0.77734,-0.39062zM17.38672,61.62695c-0.27061,-0.00416 -0.53134,0.10155 -0.72266,0.29297c-0.39042,0.39051 -0.39042,1.02356 0,1.41406c0.18761,0.18809 0.44235,0.2938 0.70801,0.2938c0.26566,0 0.5204,-0.10571 0.70801,-0.2938c0.38988,-0.39105 0.38901,-1.02409 -0.00195,-1.41406c-0.18366,-0.18377 -0.43163,-0.28884 -0.69141,-0.29297zM62.64063,61.62695c-0.26993,-0.00363 -0.52986,0.10204 -0.7207,0.29297c-0.39042,0.39051 -0.39042,1.02356 0,1.41406c0.39051,0.39042 1.02356,0.39042 1.41406,0c0.39042,-0.39051 0.39042,-1.02356 0,-1.41406c-0.18414,-0.18423 -0.4329,-0.28934 -0.69336,-0.29297zM59.49805,64.38281c-0.02345,-0.00017 -0.04691,0.00048 -0.07031,0.00195c-0.20134,0.01087 -0.3947,0.08236 -0.55469,0.20508c-0.21062,0.16132 -0.34851,0.39972 -0.38331,0.66273c-0.0348,0.26301 0.03634,0.52907 0.19776,0.73961c0.16132,0.21062 0.39972,0.34851 0.66273,0.38331c0.26301,0.0348 0.52907,-0.03634 0.73961,-0.19776c0.21062,-0.16132 0.34851,-0.39972 0.38331,-0.66273c0.0348,-0.26301 -0.03634,-0.52907 -0.19776,-0.73961c-0.18554,-0.24274 -0.47186,-0.38734 -0.77734,-0.39258zM20.50586,64.38477c-0.30515,0.00477 -0.59141,0.14862 -0.77734,0.39063c-0.16142,0.21054 -0.23256,0.4766 -0.19776,0.73961c0.0348,0.26301 0.17269,0.50141 0.38331,0.66273c0.43761,0.33526 1.06399,0.25314 1.40039,-0.18359c0.16163,-0.2103 0.2331,-0.4762 0.19867,-0.7392c-0.03443,-0.263 -0.17194,-0.50154 -0.38226,-0.66314c-0.17899,-0.13758 -0.39927,-0.21055 -0.625,-0.20703zM55.97461,66.71094c-0.16764,0.00425 -0.33152,0.0506 -0.47656,0.13477c-0.47753,0.27639 -0.64097,0.88733 -0.36523,1.36523c0.27572,0.47824 0.88681,0.6426 1.36523,0.36719c0.2302,-0.13242 0.39827,-0.35096 0.46715,-0.60744c0.06888,-0.25648 0.03292,-0.52982 -0.09996,-0.75975c-0.18296,-0.31714 -0.5246,-0.50894 -0.89062,-0.5zM23.95117,66.71484c-0.34012,0.01646 -0.6485,0.20487 -0.81836,0.5c-0.27574,0.47791 -0.1123,1.08884 0.36523,1.36523c0.22969,0.13304 0.50286,0.1693 0.75931,0.1008c0.25645,-0.06851 0.47514,-0.23617 0.60788,-0.46603c0.13288,-0.22993 0.16885,-0.50327 0.09996,-0.75975c-0.06888,-0.25648 -0.23695,-0.47502 -0.46715,-0.60744c-0.16582,-0.09571 -0.35563,-0.14181 -0.54687,-0.13281zM52.25391,68.5625c-0.134,-0.00104 -0.26684,0.02487 -0.39062,0.07617c-0.24501,0.10153 -0.43966,0.29623 -0.54112,0.54127c-0.10146,0.24504 -0.10142,0.52035 0.00011,0.76537c0.10153,0.24501 0.29623,0.43966 0.54127,0.54112c0.24504,0.10146 0.52035,0.10142 0.76537,-0.00011c0.24501,-0.10153 0.43966,-0.29623 0.54112,-0.54127c0.10146,-0.24504 0.10142,-0.52035 -0.00011,-0.76537c-0.15372,-0.37099 -0.51445,-0.61405 -0.91602,-0.61719zM27.77734,68.56445c-0.41291,-0.00963 -0.78927,0.23558 -0.94727,0.61719c-0.2099,0.51022 0.03307,1.09403 0.54297,1.30469c0.24501,0.10153 0.52033,0.10157 0.76537,0.00011c0.24504,-0.10146 0.43974,-0.29611 0.54127,-0.54112c0.10142,-0.24526 0.10118,-0.52077 -0.00067,-0.76586c-0.10184,-0.24508 -0.29693,-0.43963 -0.5423,-0.54078c-0.11419,-0.0467 -0.23603,-0.07186 -0.35937,-0.07422zM31.70898,69.91016c-0.44958,0.00413 -0.84114,0.30778 -0.95703,0.74219c-0.14286,0.5334 0.17366,1.08163 0.70703,1.22461c0.5334,0.14286 1.08163,-0.17366 1.22461,-0.70703c0.14286,-0.5334 -0.17366,-1.08163 -0.70703,-1.22461c-0.08719,-0.02376 -0.17721,-0.03558 -0.26758,-0.03516zM48.31836,69.91211c-0.10006,-0.00386 -0.20014,0.00733 -0.29687,0.0332c-0.53337,0.14298 -0.84989,0.69121 -0.70703,1.22461c0.14298,0.53337 0.69121,0.84989 1.22461,0.70703c0.53337,-0.14298 0.84989,-0.69121 0.70703,-1.22461c-0.11356,-0.42343 -0.48967,-0.72352 -0.92773,-0.74023zM44.14453,70.72852c-0.03331,0.00094 -0.06656,0.00355 -0.09961,0.00781c-0.54734,0.0719 -0.93288,0.57371 -0.86133,1.12109c0.03451,0.26323 0.17228,0.50194 0.38294,0.66351c0.21066,0.16157 0.47693,0.23274 0.74011,0.19782c0.54655,-0.07287 0.93098,-0.57438 0.85938,-1.12109c-0.06694,-0.50895 -0.50838,-0.88455 -1.02148,-0.86914zM35.7793,70.73047c-0.48632,0.01963 -0.88788,0.38656 -0.95117,0.86914c-0.03492,0.26318 0.03625,0.52944 0.19782,0.74011c0.16157,0.21066 0.40028,0.34843 0.66351,0.38294c0.54738,0.07155 1.0492,-0.31399 1.12109,-0.86133c0.07278,-0.54742 -0.31196,-1.0502 -0.85937,-1.12305c-0.05696,-0.00754 -0.11447,-0.01015 -0.17187,-0.00781zM40,71c-0.55228,0 -1,0.44772 -1,1c0,0.55228 0.44772,1 1,1c0.55228,0 1,-0.44772 1,-1c0,-0.55228 -0.44772,-1 -1,-1z"></path></g></g>
</svg>