<svg width="100" height="100" viewBox="0 0 100 100" fill="none" xmlns="http://www.w3.org/2000/svg">
<path d="M51.25 10C51.25 10.6904 50.6904 11.25 50 11.25C49.3096 11.25 48.75 10.6904 48.75 10C48.75 9.30964 49.3096 8.75 50 8.75C50.6904 8.75 51.25 9.30964 51.25 10ZM46.0181 10.1807C46.1075 10.8649 45.6256 11.4922 44.9414 11.582C44.258 11.6715 43.6311 11.191 43.54 10.5078C43.4964 10.1788 43.5853 9.84601 43.7873 9.58268C43.9893 9.31935 44.2877 9.14714 44.6167 9.104C44.658 9.09868 44.6996 9.09542 44.7412 9.09424C45.3826 9.07497 45.9344 9.54447 46.0181 10.1807ZM55.3833 9.10645C56.0675 9.19632 56.5494 9.82359 56.46 10.5078C56.3701 11.192 55.7428 11.6739 55.0586 11.5845C54.7295 11.5413 54.4312 11.3691 54.2292 11.1058C54.0272 10.8425 53.9383 10.5096 53.9819 10.1807C54.0621 9.5784 54.5638 9.12103 55.1709 9.09668C55.2418 9.09389 55.3129 9.09716 55.3833 9.10645ZM40.8545 11.04C41.0331 11.7068 40.6374 12.3921 39.9707 12.5708C39.304 12.7494 38.6187 12.3537 38.4399 11.687C38.2614 11.0203 38.657 10.335 39.3237 10.1563C39.4043 10.1342 39.4869 10.1203 39.5703 10.1147C39.5996 10.1129 39.6289 10.1121 39.6582 10.1123C40.2202 10.1175 40.7096 10.497 40.8545 11.04ZM60.6763 10.1563C61.343 10.335 61.7386 11.0203 61.5601 11.687C61.3813 12.3537 60.6961 12.7494 60.0293 12.5708C59.3626 12.3921 58.9669 11.7068 59.1455 11.04C59.2913 10.498 59.7805 10.1196 60.3418 10.1147C60.4547 10.1134 60.5672 10.1274 60.6763 10.1563ZM35.8472 12.5659C35.9741 12.8722 35.9741 13.2163 35.8473 13.5226C35.7205 13.8289 35.4772 14.0723 35.1709 14.1992C34.8646 14.3261 34.5205 14.3262 34.2142 14.1994C33.9079 14.0725 33.6645 13.8292 33.5376 13.5229C33.4107 13.2167 33.4106 12.8725 33.5375 12.5662C33.6643 12.2599 33.9076 12.0166 34.2139 11.8896C34.3686 11.8255 34.5347 11.7931 34.7021 11.7944C35.2041 11.7984 35.655 12.1022 35.8472 12.5659ZM65.7861 11.8872C66.0924 12.0141 66.3357 12.2575 66.4625 12.5638C66.5894 12.8701 66.5893 13.2142 66.4624 13.5205C66.3355 13.8268 66.0921 14.0701 65.7858 14.1969C65.4795 14.3237 65.1354 14.3237 64.8291 14.1968C64.1927 13.9325 63.8902 13.203 64.1528 12.5659C64.35 12.0898 64.8192 11.7834 65.3345 11.7944C65.4895 11.7971 65.6426 11.8285 65.7861 11.8872ZM31.0815 14.7339C31.4262 15.3313 31.2219 16.0949 30.625 16.4404C30.3379 16.6067 29.9964 16.6521 29.6759 16.5664C29.3553 16.4808 29.0819 16.2712 28.916 15.9839C28.5718 15.3859 28.7772 14.622 29.375 14.2773C29.5563 14.1721 29.7612 14.1142 29.9707 14.1089C30.4274 14.0986 30.8533 14.3382 31.0815 14.7339ZM70.625 14.2773C70.9123 14.4433 71.1219 14.7166 71.2075 15.0372C71.2932 15.3578 71.2479 15.6992 71.0815 15.9863C70.7361 16.5832 69.9724 16.7875 69.375 16.4429C68.7772 16.0982 68.5718 15.3344 68.916 14.7363C69.1288 14.3667 69.5154 14.1311 69.9414 14.1113C70.1805 14.1001 70.4177 14.1577 70.625 14.2773ZM85 50C85 69.3152 69.3152 85 50 85C30.6848 85 15 69.3152 15 50C15 30.6848 30.6848 15 50 15C69.3152 15 85 30.6848 85 50ZM26.6431 17.5024C26.8448 17.7656 26.9338 18.0982 26.8903 18.427C26.8468 18.7557 26.6744 19.0537 26.4111 19.2554C26.1483 19.4574 25.8159 19.5467 25.4871 19.5037C25.1584 19.4607 24.8602 19.2888 24.6582 19.0259C24.4564 18.7627 24.3675 18.4301 24.411 18.1014C24.4545 17.7726 24.6269 17.4746 24.8901 17.2729C25.0894 17.12 25.3302 17.0307 25.5811 17.0166C25.6111 17.0147 25.6413 17.0139 25.6714 17.0142C26.0528 17.0201 26.4106 17.1999 26.6431 17.5024ZM75.1099 17.2705C75.3731 17.4722 75.5455 17.7702 75.589 18.0989C75.6325 18.4277 75.5436 18.7603 75.3418 19.0234C75.1402 19.2867 74.8421 19.4591 74.5134 19.5026C74.1846 19.5461 73.852 19.4571 73.5889 19.2554C73.3256 19.0537 73.1532 18.7557 73.1097 18.427C73.0662 18.0982 73.1552 17.7656 73.3569 17.5024C73.5894 17.1999 73.9472 17.0201 74.3286 17.0142C74.6105 17.0091 74.8858 17.0994 75.1099 17.2705ZM22.6001 20.8325C23.0881 21.3207 23.0881 22.112 22.6001 22.6001C22.112 23.0881 21.3207 23.0881 20.8325 22.6001C20.3445 22.112 20.3445 21.3207 20.8325 20.8325C21.0711 20.5939 21.396 20.4618 21.7334 20.4663C22.059 20.4708 22.3699 20.6022 22.6001 20.8325ZM79.1675 20.8325C79.6555 21.3207 79.6555 22.112 79.1675 22.6001C78.6793 23.0881 77.888 23.0881 77.3999 22.6001C76.9119 22.112 76.9119 21.3207 77.3999 20.8325C77.6391 20.5932 77.965 20.4611 78.3032 20.4663C78.6279 20.4715 78.9379 20.6028 79.1675 20.8325ZM81.792 24.397C82.1605 24.4138 82.5027 24.5925 82.7271 24.8853C82.9288 25.1484 83.0178 25.481 82.9743 25.8098C82.9308 26.1385 82.7584 26.4365 82.4951 26.6382C82.2319 26.84 81.8994 26.9289 81.5706 26.8854C81.2418 26.8419 80.9438 26.6695 80.7422 26.4062C80.3237 25.8586 80.4274 25.0755 80.9741 24.6558C81.1738 24.5015 81.4155 24.4113 81.6675 24.397C81.709 24.3949 81.7505 24.3949 81.792 24.397ZM19.0283 24.6558C19.2916 24.8574 19.464 25.1554 19.5075 25.4842C19.551 25.8129 19.462 26.1455 19.2603 26.4087C19.0586 26.672 18.7606 26.8443 18.4318 26.8878C18.1031 26.9313 17.7705 26.8424 17.5073 26.6406C17.244 26.439 17.0717 26.141 17.0282 25.8122C16.9847 25.4834 17.0736 25.1509 17.2754 24.8877C17.5078 24.5852 17.8656 24.4054 18.2471 24.3994C18.5289 24.3943 18.8043 24.4847 19.0283 24.6558ZM85.7202 29.3726C85.8865 29.6597 85.9318 30.0011 85.8462 30.3217C85.7606 30.6422 85.551 30.9156 85.2637 31.0815C84.6656 31.4258 83.9018 31.2204 83.5571 30.6226C83.2125 30.0252 83.4168 29.2615 84.0137 28.916C84.1952 28.8117 84.4 28.7546 84.6094 28.75C85.0655 28.7392 85.4913 28.9779 85.7202 29.3726ZM15.9839 28.9185C16.5808 29.2639 16.7851 30.0276 16.4404 30.625C16.0949 31.2219 15.3313 31.4262 14.7339 31.0815C14.137 30.7361 13.9327 29.9724 14.2773 29.375C14.4903 29.007 14.8756 28.7725 15.3003 28.7524C15.5394 28.7412 15.7766 28.7988 15.9839 28.9185ZM88.1104 34.2114C88.2373 34.5177 88.2373 34.8618 88.1105 35.1681C87.9837 35.4744 87.7404 35.7178 87.4341 35.8447C87.1278 35.9716 86.7837 35.9717 86.4774 35.8449C86.1711 35.718 85.9277 35.4747 85.8008 35.1685C85.6739 34.8622 85.6738 34.518 85.8007 34.2117C85.9275 33.9054 86.1708 33.6621 86.4771 33.5352C86.6318 33.471 86.7978 33.4386 86.9653 33.4399C87.4673 33.4439 87.9182 33.7477 88.1104 34.2114ZM13.5229 33.5376C13.8292 33.6645 14.0725 33.9079 14.1994 34.2142C14.3262 34.5205 14.3261 34.8646 14.1992 35.1709C14.0723 35.4772 13.8289 35.7205 13.5226 35.8473C13.2163 35.9741 12.8722 35.9741 12.5659 35.8472C12.2596 35.7203 12.0163 35.4769 11.8895 35.1706C11.7627 34.8643 11.7627 34.5201 11.8896 34.2139C12.0868 33.7377 12.556 33.4314 13.0713 33.4424C13.2264 33.4458 13.3796 33.4781 13.5229 33.5376ZM11.6846 38.4399C12.0053 38.5257 12.2787 38.7356 12.4445 39.0232C12.6103 39.3109 12.6549 39.6526 12.5684 39.9731C12.3896 40.6399 11.7044 41.0355 11.0376 40.8569C10.7169 40.7711 10.4435 40.5613 10.2777 40.2737C10.1119 39.986 10.0673 39.6443 10.1538 39.3237C10.2996 38.7817 10.7888 38.4033 11.3501 38.3984C11.463 38.3971 11.5755 38.4111 11.6846 38.4399ZM89.8438 39.3262C90.0223 39.9929 89.6267 40.6782 88.96 40.8569C88.2932 41.0355 87.6079 40.6399 87.4292 39.9731C87.2506 39.3064 87.6463 38.6211 88.313 38.4424C88.3936 38.4203 88.4762 38.4064 88.5596 38.4009C88.5888 38.399 88.6181 38.3982 88.6475 38.3984C89.2094 38.4036 89.6989 38.7832 89.8438 39.3262ZM10.5029 43.5425C11.1871 43.6324 11.669 44.2596 11.5796 44.9438C11.5365 45.2729 11.3642 45.5713 11.1009 45.7732C10.8376 45.9752 10.5048 46.0642 10.1758 46.0205C9.49152 45.9295 9.01059 45.301 9.10156 44.6167C9.18177 44.0144 9.68343 43.5571 10.2905 43.5327C10.3615 43.5299 10.4325 43.5332 10.5029 43.5425ZM90.896 44.6191C90.9854 45.3034 90.5035 45.9306 89.8193 46.0205C89.1351 46.1099 88.5078 45.628 88.418 44.9438C88.3285 44.2605 88.809 43.6336 89.4922 43.5425C89.5335 43.5372 89.5751 43.5339 89.6167 43.5327C90.259 43.5122 90.8122 43.982 90.896 44.6191ZM11.25 50C11.25 50.6904 10.6904 51.25 10 51.25C9.30964 51.25 8.75 50.6904 8.75 50C8.75 49.3096 9.30964 48.75 10 48.75C10.6904 48.75 11.25 49.3096 11.25 50ZM91.25 50C91.25 50.6904 90.6904 51.25 90 51.25C89.3096 51.25 88.75 50.6904 88.75 50C88.75 49.3096 89.3096 48.75 90 48.75C90.6904 48.75 91.25 49.3096 91.25 50ZM11.5796 55.0586C11.6691 55.742 11.1886 56.3689 10.5054 56.46C9.82109 56.5509 9.19261 56.07 9.10156 55.3857C9.05791 55.0568 9.14687 54.7239 9.34883 54.4606C9.55079 54.1973 9.84918 54.0251 10.1782 53.9819C10.2195 53.9766 10.2611 53.9733 10.3027 53.9722C10.9441 53.9529 11.4959 54.4224 11.5796 55.0586ZM89.8193 53.9868C90.1484 54.03 90.4468 54.2022 90.6487 54.4655C90.8507 54.7288 90.9397 55.0617 90.896 55.3906C90.8529 55.7197 90.6807 56.0181 90.4173 56.22C90.154 56.422 89.8212 56.5109 89.4922 56.4673C89.1631 56.4241 88.8648 56.2519 88.6628 55.9886C88.4608 55.7253 88.3719 55.3924 88.4155 55.0635C88.4948 54.4594 88.9981 54.0004 89.6069 53.977C89.6779 53.9743 89.7489 53.9775 89.8193 53.9868ZM12.5684 60.0293C12.7469 60.6961 12.3513 61.3813 11.6846 61.5601C11.0178 61.7386 10.3325 61.343 10.1538 60.6763C9.97523 60.0095 10.3709 59.3242 11.0376 59.1455C11.1585 59.1132 11.2836 59.0992 11.4087 59.104C11.9563 59.1249 12.4264 59.5 12.5684 60.0293ZM88.9575 59.148C89.6242 59.3267 90.0199 60.012 89.8413 60.6787C89.6626 61.3454 88.9773 61.7411 88.3105 61.5625C87.6438 61.3838 87.2482 60.6985 87.4268 60.0317C87.5716 59.4887 88.0611 59.1092 88.623 59.104C88.736 59.1035 88.8485 59.1183 88.9575 59.148ZM87.4341 64.1504C87.7404 64.2773 87.9837 64.5207 88.1105 64.827C88.2373 65.1333 88.2373 65.4774 88.1104 65.7837C87.9834 66.09 87.7401 66.3333 87.4338 66.4601C87.1275 66.5869 86.7833 66.5869 86.4771 66.46C86.1708 66.3331 85.9275 66.0897 85.8007 65.7834C85.6738 65.4771 85.6739 65.1329 85.8008 64.8267C85.998 64.3505 86.4672 64.0442 86.9824 64.0552C87.1376 64.0586 87.2907 64.0909 87.4341 64.1504ZM14.2017 64.8291C14.3286 65.1354 14.3286 65.4795 14.2018 65.7858C14.075 66.0921 13.8317 66.3355 13.5254 66.4624C13.2191 66.5893 12.875 66.5894 12.5687 66.4625C12.2624 66.3357 12.019 66.0924 11.8921 65.7861C11.7652 65.4799 11.7651 65.1357 11.892 64.8294C12.0188 64.5231 12.2621 64.2797 12.5684 64.1528C12.7231 64.0887 12.8891 64.0563 13.0566 64.0576C13.5586 64.0615 14.0095 64.3654 14.2017 64.8291ZM16.4404 69.3726C16.6067 69.6597 16.6521 70.0011 16.5664 70.3217C16.4808 70.6423 16.2712 70.9156 15.9839 71.0815C15.6965 71.2476 15.3548 71.2926 15.0342 71.2065C14.7136 71.1204 14.4404 70.9103 14.2749 70.6226C13.9306 70.0245 14.1361 69.2607 14.7339 68.916C14.9152 68.8108 15.12 68.7529 15.3296 68.7476C15.7863 68.7373 16.2122 68.9769 16.4404 69.3726ZM85.2637 68.9209C85.8615 69.2656 86.0669 70.0294 85.7227 70.6274C85.5567 70.9148 85.2834 71.1243 84.9628 71.21C84.6422 71.2956 84.3008 71.2503 84.0137 71.084C83.4168 70.7385 83.2125 69.9748 83.5571 69.3774C83.7701 69.0095 84.1554 68.7749 84.5801 68.7549C84.8191 68.7436 85.0564 68.8013 85.2637 68.9209ZM82.4951 73.3545C82.7584 73.5561 82.9308 73.8541 82.9743 74.1829C83.0178 74.5117 82.9288 74.8442 82.7271 75.1074C82.525 75.3703 82.2269 75.5422 81.8981 75.5852C81.5694 75.6283 81.237 75.539 80.9741 75.3369C80.7112 75.1349 80.5393 74.8367 80.4963 74.508C80.4533 74.1792 80.5426 73.8469 80.7446 73.584C80.9765 73.2821 81.3333 73.1024 81.7139 73.0957C81.996 73.0913 82.2714 73.1825 82.4951 73.3545ZM19.2603 73.5864C19.462 73.8496 19.551 74.1822 19.5075 74.5109C19.464 74.8397 19.2916 75.1377 19.0283 75.3394C18.7654 75.5414 18.4331 75.6307 18.1043 75.5877C17.7756 75.5447 17.4774 75.3728 17.2754 75.1099C17.0736 74.8467 16.9847 74.5141 17.0282 74.1853C17.0717 73.8566 17.244 73.5586 17.5073 73.3569C17.7073 73.2035 17.949 73.1142 18.2007 73.1006C18.2299 73.0987 18.2593 73.0979 18.2886 73.0981C18.67 73.1041 19.0278 73.2839 19.2603 73.5864ZM22.5977 77.3999C23.0864 77.8874 23.0875 78.6787 22.6001 79.1675C22.3656 79.4026 22.0472 79.5347 21.7151 79.5347C21.383 79.5347 21.0646 79.4026 20.8301 79.1675C20.342 78.6793 20.342 77.888 20.8301 77.3999C21.0692 77.1606 21.3951 77.0285 21.7334 77.0337C22.0581 77.0389 22.3681 77.1702 22.5977 77.3999ZM79.1675 77.3999C79.6555 77.888 79.6555 78.6793 79.1675 79.1675C78.6793 79.6555 77.888 79.6555 77.3999 79.1675C76.9119 78.6793 76.9119 77.888 77.3999 77.3999C77.6385 77.1612 77.9634 77.0292 78.3008 77.0337C78.6264 77.0382 78.9373 77.1696 79.1675 77.3999ZM75.3442 80.9692C75.546 81.2324 75.6349 81.565 75.5914 81.8938C75.5479 82.2225 75.3756 82.5205 75.1123 82.7222C74.8491 82.9239 74.5166 83.0129 74.1878 82.9694C73.859 82.9259 73.561 82.7535 73.3594 82.4902C73.1576 82.2271 73.0687 81.8945 73.1122 81.5657C73.1557 81.237 73.328 80.939 73.5913 80.7373C73.7913 80.5839 74.033 80.4946 74.2847 80.481C74.3139 80.4791 74.3432 80.4783 74.3726 80.4785C74.7544 80.4851 75.1123 80.6658 75.3442 80.9692ZM26.4136 80.7398C26.6765 80.9418 26.8484 81.2399 26.8914 81.5687C26.9344 81.8974 26.8451 82.2298 26.6431 82.4927C26.2226 83.0386 25.4396 83.1412 24.8926 82.7222C24.6293 82.5205 24.4569 82.2225 24.4134 81.8938C24.3699 81.565 24.4589 81.2324 24.6606 80.9692C24.8931 80.6667 25.2509 80.4869 25.6323 80.481C25.9145 80.4766 26.1898 80.5678 26.4136 80.7398ZM71.0815 84.0137C71.2476 84.3011 71.2926 84.6428 71.2065 84.9634C71.1204 85.284 70.9103 85.5571 70.6226 85.7227C70.0245 86.0669 69.2607 85.8615 68.916 85.2637C68.5713 84.6663 68.7756 83.9026 69.3726 83.5571C69.5539 83.4519 69.7587 83.394 69.9683 83.3887C70.4258 83.3775 70.8529 83.6172 71.0815 84.0137ZM30.6226 83.5596C30.9103 83.7251 31.1204 83.9983 31.2065 84.3189C31.2926 84.6395 31.2476 84.9811 31.0815 85.2686C30.9156 85.5559 30.6422 85.7655 30.3217 85.8511C30.0011 85.9367 29.6597 85.8914 29.3726 85.7251C28.7756 85.3796 28.5713 84.6159 28.916 84.0186C29.1283 83.6496 29.5138 83.4141 29.939 83.3936C30.178 83.3823 30.4153 83.4399 30.6226 83.5596ZM66.4624 86.4746C66.5893 86.7809 66.5894 87.125 66.4625 87.4313C66.3357 87.7376 66.0924 87.981 65.7861 88.1079C65.4799 88.2348 65.1357 88.2349 64.8294 88.108C64.5231 87.9812 64.2797 87.7379 64.1528 87.4316C64.0259 87.1254 64.0259 86.7812 64.1527 86.4749C64.2795 86.1686 64.5228 85.9253 64.8291 85.7983C64.9838 85.7342 65.1499 85.7018 65.3174 85.7031C65.8193 85.7071 66.2703 86.0109 66.4624 86.4746ZM35.1709 85.7983C35.4776 85.9248 35.7215 86.168 35.8488 86.4743C35.9761 86.7807 35.9764 87.1251 35.8496 87.4316C35.7227 87.7379 35.4793 87.9812 35.173 88.108C34.8667 88.2349 34.5226 88.2348 34.2163 88.1079C33.5789 87.8446 33.2752 87.1148 33.5376 86.4771C33.7351 86 34.2055 85.6935 34.7217 85.7056C34.8759 85.7085 35.0282 85.74 35.1709 85.7983ZM39.9707 87.4316C40.6374 87.6104 41.0331 88.2957 40.8545 88.9624C40.6758 89.6291 39.9905 90.0248 39.3237 89.8462C38.657 89.6675 38.2614 88.9822 38.4399 88.3154C38.5848 87.7724 39.0743 87.3929 39.6362 87.3877C39.7492 87.3872 39.8617 87.4019 39.9707 87.4316ZM61.5576 88.3154C61.7362 88.9822 61.3405 89.6675 60.6738 89.8462C60.0071 90.0248 59.3218 89.6291 59.1431 88.9624C58.9645 88.2957 59.3601 87.6104 60.0269 87.4316C60.1478 87.3993 60.2729 87.3853 60.3979 87.3901C60.9455 87.411 61.4157 87.7861 61.5576 88.3154ZM56.4575 89.4971C56.547 90.1805 56.0665 90.8074 55.3833 90.8984C55.0543 90.9421 54.7215 90.8531 54.4582 90.6512C54.1948 90.4492 54.0226 90.1508 53.9795 89.8218C53.8901 89.1376 54.372 88.5103 55.0562 88.4204C55.0975 88.4151 55.139 88.4118 55.1807 88.4106C55.822 88.3914 56.3738 88.8609 56.4575 89.4971ZM44.939 88.4229C45.6232 88.5139 46.1042 89.1424 46.0132 89.8267C45.9233 90.5108 45.296 90.9928 44.6118 90.9033C44.2828 90.8602 43.9844 90.688 43.7824 90.4246C43.5805 90.1613 43.4915 89.8285 43.5352 89.4995C43.6143 88.8963 44.1162 88.4376 44.7241 88.4131C44.7959 88.4102 44.8678 88.4134 44.939 88.4229ZM51.25 90C51.25 90.6904 50.6904 91.25 50 91.25C49.3096 91.25 48.75 90.6904 48.75 90C48.75 89.3096 49.3096 88.75 50 88.75C50.6904 88.75 51.25 89.3096 51.25 90Z" fill="white" stroke="white" stroke-width="0.5" stroke-miterlimit="10" stroke-linejoin="round"/>
<path d="M50 8.75C49.3096 8.75 48.75 9.30965 48.75 10C48.75 10.6904 49.3096 11.25 50 11.25C50.6904 11.25 51.25 10.6904 51.25 10C51.25 9.30965 50.6904 8.75 50 8.75ZM44.7412 9.09424C44.6996 9.09541 44.658 9.09867 44.6167 9.104C44.2877 9.14714 43.9893 9.31935 43.7873 9.58268C43.5854 9.846 43.4964 10.1788 43.54 10.5078C43.6311 11.191 44.258 11.6715 44.9414 11.582C45.6256 11.4922 46.1075 10.8649 46.0181 10.1807C45.9344 9.54449 45.3826 9.07498 44.7412 9.09424ZM55.1709 9.09667C54.5638 9.12102 54.0621 9.57839 53.9819 10.1807C53.9383 10.5096 54.0272 10.8425 54.2292 11.1058C54.4312 11.3691 54.7296 11.5413 55.0586 11.5845C55.7428 11.6739 56.3701 11.192 56.46 10.5078C56.5494 9.82359 56.0675 9.19631 55.3833 9.10645C55.3129 9.09716 55.2418 9.09389 55.1709 9.09667ZM39.6582 10.1123C39.6289 10.1121 39.5996 10.1129 39.5703 10.1147C39.4869 10.1203 39.4043 10.1342 39.3237 10.1562C38.657 10.335 38.2614 11.0202 38.4399 11.687C38.6187 12.3537 39.304 12.7494 39.9707 12.5708C40.6374 12.3921 41.0331 11.7068 40.8545 11.04C40.7096 10.497 40.2202 10.1175 39.6582 10.1123ZM60.3418 10.1147C59.7805 10.1196 59.2913 10.498 59.1455 11.04C58.9669 11.7068 59.3626 12.3921 60.0293 12.5708C60.6961 12.7494 61.3813 12.3537 61.5601 11.687C61.7386 11.0203 61.343 10.335 60.6763 10.1562C60.5672 10.1274 60.4547 10.1134 60.3418 10.1147ZM34.7022 11.7944C34.5347 11.7931 34.3686 11.8255 34.2139 11.8896C33.9076 12.0166 33.6643 12.2599 33.5375 12.5662C33.4107 12.8725 33.4107 13.2167 33.5376 13.523C33.6645 13.8292 33.9079 14.0725 34.2142 14.1993C34.5205 14.3262 34.8646 14.3261 35.1709 14.1992C35.4772 14.0723 35.7205 13.8289 35.8473 13.5226C35.9741 13.2163 35.9741 12.8722 35.8472 12.5659C35.655 12.1022 35.2041 11.7984 34.7022 11.7944ZM65.3345 11.7944C64.8192 11.7834 64.35 12.0898 64.1528 12.5659C63.8902 13.203 64.1927 13.9325 64.8291 14.1968C65.1354 14.3237 65.4795 14.3238 65.7858 14.1969C66.0921 14.0701 66.3355 13.8268 66.4624 13.5205C66.5893 13.2143 66.5894 12.8701 66.4626 12.5638C66.3357 12.2575 66.0924 12.0141 65.7862 11.8872C65.6427 11.8286 65.4895 11.7971 65.3345 11.7944ZM29.9707 14.1089C29.7612 14.1142 29.5563 14.1721 29.375 14.2773C28.7772 14.622 28.5718 15.3859 28.916 15.9839C29.0819 16.2712 29.3553 16.4808 29.6759 16.5664C29.9964 16.6521 30.3379 16.6067 30.625 16.4404C31.2219 16.0949 31.4262 15.3313 31.0815 14.7339C30.8533 14.3382 30.4274 14.0986 29.9707 14.1089ZM69.9414 14.1113C69.5154 14.1311 69.1288 14.3667 68.916 14.7363C68.5718 15.3343 68.7772 16.0982 69.375 16.4429C69.9724 16.7875 70.7361 16.5832 71.0815 15.9863C71.2478 15.6992 71.2932 15.3577 71.2076 15.0372C71.1219 14.7166 70.9123 14.4433 70.625 14.2773C70.4177 14.1577 70.1805 14.1001 69.9414 14.1113ZM50 15C30.6848 15 15 30.6848 15 50C15 69.3152 30.6848 85 50 85C69.3152 85 85 69.3152 85 50C85 30.6848 69.3152 15 50 15ZM25.6714 17.0142C25.6413 17.0139 25.6111 17.0147 25.581 17.0166C25.3302 17.0307 25.0894 17.12 24.8901 17.273C24.6269 17.4746 24.4545 17.7726 24.411 18.1014C24.3675 18.4301 24.4564 18.7627 24.6582 19.0259C24.8602 19.2888 25.1584 19.4607 25.4871 19.5037C25.8159 19.5467 26.1483 19.4574 26.4111 19.2554C26.6744 19.0537 26.8468 18.7557 26.8903 18.4269C26.9338 18.0982 26.8448 17.7656 26.6431 17.5024C26.4106 17.1999 26.0528 17.0201 25.6714 17.0142ZM74.3286 17.0142C73.9472 17.0201 73.5894 17.1999 73.3569 17.5024C73.1552 17.7656 73.0662 18.0982 73.1097 18.427C73.1532 18.7557 73.3256 19.0537 73.5889 19.2554C73.8521 19.4571 74.1846 19.5461 74.5134 19.5026C74.8422 19.4591 75.1402 19.2867 75.3418 19.0234C75.5436 18.7603 75.6325 18.4277 75.589 18.0989C75.5455 17.7702 75.3731 17.4722 75.1099 17.2705C74.8858 17.0994 74.6105 17.0091 74.3286 17.0142ZM50 17.5C67.9641 17.5 82.5 32.0359 82.5 50C82.5 67.9641 67.9641 82.5 50 82.5C32.0359 82.5 17.5 67.9641 17.5 50C17.5 32.0359 32.0359 17.5 50 17.5ZM21.7334 20.4663C21.396 20.4618 21.0711 20.5939 20.8325 20.8325C20.3445 21.3207 20.3445 22.112 20.8325 22.6001C21.3207 23.0881 22.112 23.0881 22.6001 22.6001C23.0881 22.112 23.0881 21.3206 22.6001 20.8325C22.3699 20.6022 22.059 20.4709 21.7334 20.4663ZM78.3032 20.4663C77.965 20.4611 77.6391 20.5932 77.3999 20.8325C76.9119 21.3207 76.9119 22.112 77.3999 22.6001C77.888 23.0881 78.6794 23.0881 79.1675 22.6001C79.6555 22.112 79.6555 21.3206 79.1675 20.8325C78.9379 20.6028 78.6279 20.4715 78.3032 20.4663ZM81.6675 24.397C81.4155 24.4113 81.1738 24.5015 80.9741 24.6558C80.4274 25.0755 80.3237 25.8586 80.7422 26.4062C80.9438 26.6695 81.2418 26.8419 81.5706 26.8854C81.8993 26.9289 82.2319 26.84 82.4951 26.6382C82.7584 26.4365 82.9307 26.1385 82.9742 25.8098C83.0177 25.481 82.9288 25.1484 82.727 24.8853C82.5027 24.5925 82.1604 24.4138 81.792 24.397C81.7505 24.3949 81.7089 24.3949 81.6675 24.397ZM18.2471 24.3994C17.8656 24.4054 17.5078 24.5852 17.2754 24.8877C17.0736 25.1509 16.9847 25.4835 17.0282 25.8122C17.0717 26.141 17.2441 26.439 17.5073 26.6406C17.7705 26.8424 18.1031 26.9313 18.4318 26.8878C18.7606 26.8443 19.0586 26.672 19.2603 26.4087C19.462 26.1455 19.551 25.8129 19.5075 25.4842C19.464 25.1554 19.2916 24.8574 19.0283 24.6558C18.8043 24.4847 18.529 24.3943 18.2471 24.3994ZM84.6094 28.75C84.4 28.7546 84.1952 28.8117 84.0137 28.916C83.4168 29.2615 83.2125 30.0252 83.5571 30.6225C83.9018 31.2203 84.6656 31.4258 85.2637 31.0815C85.551 30.9156 85.7606 30.6423 85.8462 30.3217C85.9319 30.0011 85.8865 29.6597 85.7202 29.3725C85.4913 28.9778 85.0655 28.7392 84.6094 28.75ZM15.3003 28.7524C14.8756 28.7725 14.4903 29.007 14.2773 29.375C13.9327 29.9724 14.137 30.7361 14.7339 31.0815C15.3313 31.4262 16.0949 31.2219 16.4404 30.625C16.7851 30.0276 16.5808 29.2639 15.9839 28.9185C15.7766 28.7988 15.5393 28.7412 15.3003 28.7524ZM86.9653 33.4399C86.7978 33.4386 86.6318 33.471 86.4771 33.5351C86.1708 33.6621 85.9275 33.9054 85.8007 34.2117C85.6738 34.518 85.6739 34.8622 85.8008 35.1684C85.9277 35.4747 86.1711 35.718 86.4774 35.8449C86.7837 35.9717 87.1278 35.9716 87.4341 35.8447C87.7404 35.7178 87.9837 35.4744 88.1105 35.1681C88.2373 34.8618 88.2373 34.5177 88.1104 34.2114C87.9182 33.7477 87.4673 33.4439 86.9653 33.4399ZM13.0713 33.4424C12.556 33.4314 12.0868 33.7377 11.8896 34.2139C11.7627 34.5201 11.7627 34.8643 11.8895 35.1706C12.0163 35.4769 12.2596 35.7203 12.5659 35.8472C12.8722 35.9741 13.2163 35.9741 13.5226 35.8473C13.8289 35.7205 14.0723 35.4772 14.1992 35.1709C14.3261 34.8647 14.3262 34.5205 14.1993 34.2142C14.0725 33.9079 13.8292 33.6645 13.523 33.5376C13.3796 33.4781 13.2265 33.4458 13.0713 33.4424ZM11.3501 38.3984C10.7888 38.4033 10.2996 38.7817 10.1538 39.3237C10.0673 39.6443 10.1119 39.986 10.2777 40.2737C10.4435 40.5613 10.7169 40.7711 11.0376 40.8569C11.7044 41.0355 12.3896 40.6399 12.5684 39.9731C12.6549 39.6526 12.6103 39.3109 12.4445 39.0232C12.2787 38.7356 12.0053 38.5257 11.6846 38.4399C11.5755 38.4111 11.463 38.3971 11.3501 38.3984ZM88.6475 38.3984C88.6181 38.3982 88.5888 38.399 88.5596 38.4009C88.4762 38.4064 88.3936 38.4203 88.313 38.4424C87.6463 38.6211 87.2506 39.3064 87.4292 39.9731C87.6079 40.6398 88.2932 41.0355 88.96 40.8569C89.6267 40.6782 90.0223 39.9929 89.8438 39.3262C89.6989 38.7831 89.2094 38.4036 88.6475 38.3984ZM10.2905 43.5327C9.68342 43.5571 9.18176 44.0144 9.10156 44.6167C9.01059 45.301 9.49151 45.9295 10.1758 46.0205C10.5048 46.0642 10.8376 45.9752 11.1009 45.7732C11.3643 45.5713 11.5365 45.2729 11.5796 44.9438C11.669 44.2596 11.1871 43.6323 10.5029 43.5425C10.4325 43.5332 10.3615 43.5299 10.2905 43.5327ZM89.6167 43.5327C89.5751 43.5339 89.5335 43.5372 89.4922 43.5425C88.809 43.6336 88.3285 44.2605 88.418 44.9438C88.5079 45.628 89.1351 46.1099 89.8193 46.0205C90.5035 45.9306 90.9854 45.3034 90.896 44.6191C90.8122 43.982 90.259 43.5122 89.6167 43.5327ZM32.5 45C29.7534 45 27.5 47.2534 27.5 50C27.5 52.7466 29.7534 55 32.5 55C35.2466 55 37.5 52.7466 37.5 50C37.5 47.2534 35.2466 45 32.5 45ZM50 45C47.2534 45 45 47.2534 45 50C45 52.7466 47.2534 55 50 55C52.7466 55 55 52.7466 55 50C55 47.2534 52.7466 45 50 45ZM67.5 45C64.7534 45 62.5 47.2534 62.5 50C62.5 52.7466 64.7534 55 67.5 55C70.2466 55 72.5 52.7466 72.5 50C72.5 47.2534 70.2466 45 67.5 45ZM32.5 47.5C33.8955 47.5 35 48.6045 35 50C35 51.3955 33.8955 52.5 32.5 52.5C31.1045 52.5 30 51.3955 30 50C30 48.6045 31.1045 47.5 32.5 47.5ZM50 47.5C51.3955 47.5 52.5 48.6045 52.5 50C52.5 51.3955 51.3955 52.5 50 52.5C48.6045 52.5 47.5 51.3955 47.5 50C47.5 48.6045 48.6045 47.5 50 47.5ZM67.5 47.5C68.8955 47.5 70 48.6045 70 50C70 51.3955 68.8955 52.5 67.5 52.5C66.1045 52.5 65 51.3955 65 50C65 48.6045 66.1045 47.5 67.5 47.5ZM10 48.75C9.30965 48.75 8.75 49.3096 8.75 50C8.75 50.6904 9.30965 51.25 10 51.25C10.6904 51.25 11.25 50.6904 11.25 50C11.25 49.3096 10.6904 48.75 10 48.75ZM90 48.75C89.3096 48.75 88.75 49.3096 88.75 50C88.75 50.6904 89.3096 51.25 90 51.25C90.6904 51.25 91.25 50.6904 91.25 50C91.25 49.3096 90.6904 48.75 90 48.75ZM10.3027 53.9722C10.2611 53.9733 10.2195 53.9766 10.1782 53.9819C9.84919 54.0251 9.5508 54.1973 9.34884 54.4606C9.14688 54.7239 9.05791 55.0568 9.10156 55.3857C9.19261 56.07 9.8211 56.5509 10.5054 56.46C11.1886 56.3689 11.6691 55.742 11.5796 55.0586C11.4959 54.4224 10.9441 53.9529 10.3027 53.9722ZM89.6069 53.9771C88.9981 54.0004 88.4948 54.4594 88.4155 55.0635C88.3719 55.3925 88.4609 55.7253 88.6628 55.9886C88.8648 56.2519 89.1632 56.4241 89.4922 56.4673C89.8212 56.5109 90.154 56.422 90.4173 56.22C90.6807 56.018 90.8529 55.7197 90.896 55.3906C90.9397 55.0617 90.8507 54.7288 90.6487 54.4655C90.4468 54.2022 90.1484 54.0299 89.8193 53.9868C89.7489 53.9775 89.6779 53.9743 89.6069 53.9771ZM11.4087 59.104C11.2836 59.0992 11.1585 59.1132 11.0376 59.1455C10.3709 59.3242 9.97524 60.0095 10.1538 60.6763C10.3325 61.343 11.0178 61.7386 11.6846 61.56C12.3513 61.3813 12.7469 60.696 12.5684 60.0293C12.4264 59.5 11.9563 59.1249 11.4087 59.104ZM88.623 59.104C88.0611 59.1091 87.5716 59.4887 87.4268 60.0317C87.2482 60.6985 87.6438 61.3838 88.3105 61.5625C88.9773 61.7411 89.6626 61.3454 89.8413 60.6787C90.0199 60.012 89.6242 59.3267 88.9575 59.1479C88.8485 59.1182 88.736 59.1035 88.623 59.104ZM86.9824 64.0552C86.4672 64.0442 85.998 64.3505 85.8008 64.8267C85.6739 65.1329 85.6738 65.4771 85.8006 65.7834C85.9275 66.0897 86.1708 66.333 86.4771 66.46C86.7833 66.5869 87.1275 66.5869 87.4338 66.4601C87.7401 66.3333 87.9834 66.09 88.1104 65.7837C88.2373 65.4774 88.2373 65.1333 88.1105 64.827C87.9837 64.5207 87.7404 64.2773 87.4341 64.1504C87.2908 64.0909 87.1376 64.0586 86.9824 64.0552ZM13.0566 64.0576C12.8891 64.0563 12.7231 64.0887 12.5684 64.1528C12.2621 64.2797 12.0188 64.5231 11.892 64.8294C11.7651 65.1357 11.7652 65.4798 11.8921 65.7861C12.019 66.0924 12.2624 66.3357 12.5687 66.4625C12.875 66.5894 13.2191 66.5893 13.5254 66.4624C13.8317 66.3355 14.075 66.0921 14.2018 65.7858C14.3286 65.4795 14.3286 65.1354 14.2017 64.8291C14.0095 64.3653 13.5586 64.0615 13.0566 64.0576ZM15.3296 68.7476C15.12 68.7529 14.9152 68.8108 14.7339 68.916C14.1361 69.2607 13.9306 70.0245 14.2749 70.6226C14.4404 70.9103 14.7136 71.1204 15.0342 71.2065C15.3548 71.2926 15.6965 71.2476 15.9839 71.0815C16.2712 70.9156 16.4808 70.6423 16.5664 70.3217C16.6521 70.0011 16.6067 69.6597 16.4404 69.3726C16.2121 68.9769 15.7862 68.7373 15.3296 68.7476ZM84.5801 68.7549C84.1554 68.775 83.7701 69.0095 83.5571 69.3775C83.2125 69.9748 83.4167 70.7385 84.0137 71.084C84.3008 71.2503 84.6422 71.2956 84.9628 71.21C85.2834 71.1244 85.5567 70.9148 85.7226 70.6275C86.0669 70.0294 85.8615 69.2656 85.2637 68.9209C85.0564 68.8013 84.8191 68.7436 84.5801 68.7549ZM81.7139 73.0957C81.3333 73.1024 80.9765 73.2821 80.7446 73.584C80.5426 73.8469 80.4533 74.1792 80.4963 74.508C80.5393 74.8367 80.7112 75.1349 80.9741 75.3369C81.237 75.539 81.5694 75.6283 81.8981 75.5853C82.2269 75.5422 82.525 75.3703 82.727 75.1074C82.9288 74.8443 83.0177 74.5117 82.9742 74.1829C82.9307 73.8541 82.7584 73.5562 82.4951 73.3545C82.2714 73.1825 81.996 73.0913 81.7139 73.0957ZM18.2886 73.0981C18.2593 73.0979 18.2299 73.0987 18.2007 73.1006C17.949 73.1142 17.7073 73.2035 17.5073 73.3569C17.2441 73.5586 17.0717 73.8566 17.0282 74.1854C16.9847 74.5141 17.0736 74.8467 17.2754 75.1099C17.4774 75.3728 17.7756 75.5446 18.1043 75.5877C18.4331 75.6307 18.7654 75.5414 19.0283 75.3394C19.2916 75.1377 19.4639 74.8397 19.5074 74.5109C19.5509 74.1822 19.462 73.8496 19.2603 73.5864C19.0278 73.2839 18.67 73.1041 18.2886 73.0981ZM21.7334 77.0337C21.3951 77.0285 21.0692 77.1606 20.8301 77.3999C20.3421 77.888 20.3421 78.6794 20.8301 79.1675C21.0646 79.4026 21.383 79.5347 21.7151 79.5347C22.0472 79.5347 22.3656 79.4026 22.6001 79.1675C23.0875 78.6787 23.0864 77.8874 22.5977 77.3999C22.3681 77.1702 22.0581 77.0388 21.7334 77.0337ZM78.3008 77.0337C77.9634 77.0291 77.6385 77.1612 77.3999 77.3999C76.9119 77.888 76.9119 78.6794 77.3999 79.1675C77.888 79.6555 78.6794 79.6555 79.1675 79.1675C79.6555 78.6793 79.6555 77.888 79.1675 77.3999C78.9373 77.1696 78.6264 77.0382 78.3008 77.0337ZM74.3726 80.4785C74.3433 80.4783 74.3139 80.4791 74.2847 80.4809C74.033 80.4945 73.7913 80.5839 73.5913 80.7373C73.328 80.939 73.1557 81.237 73.1122 81.5657C73.0687 81.8945 73.1576 82.227 73.3594 82.4902C73.561 82.7535 73.859 82.9259 74.1878 82.9694C74.5166 83.0129 74.8491 82.9239 75.1123 82.7222C75.3756 82.5205 75.5479 82.2225 75.5914 81.8937C75.6349 81.565 75.546 81.2324 75.3442 80.9692C75.1123 80.6658 74.7544 80.4851 74.3726 80.4785ZM25.6323 80.481C25.2509 80.4869 24.8931 80.6667 24.6606 80.9692C24.4589 81.2324 24.3699 81.565 24.4134 81.8938C24.4569 82.2225 24.6293 82.5205 24.8926 82.7222C25.4396 83.1413 26.2226 83.0386 26.6431 82.4927C26.8451 82.2298 26.9345 81.8974 26.8914 81.5687C26.8484 81.2399 26.6765 80.9418 26.4136 80.7398C26.1899 80.5678 25.9145 80.4766 25.6323 80.481ZM69.9683 83.3887C69.7587 83.394 69.5539 83.4519 69.3726 83.5571C68.7757 83.9026 68.5714 84.6663 68.916 85.2637C69.2607 85.8615 70.0245 86.0669 70.6226 85.7227C70.9103 85.5571 71.1204 85.284 71.2065 84.9634C71.2926 84.6428 71.2476 84.3011 71.0815 84.0137C70.8528 83.6172 70.4258 83.3775 69.9683 83.3887ZM29.939 83.3936C29.5138 83.4141 29.1283 83.6496 28.916 84.0186C28.5713 84.6159 28.7756 85.3796 29.3725 85.7251C29.6597 85.8914 30.0011 85.9367 30.3217 85.8511C30.6423 85.7655 30.9156 85.5559 31.0815 85.2686C31.2476 84.9811 31.2926 84.6395 31.2065 84.3189C31.1204 83.9983 30.9103 83.7251 30.6225 83.5596C30.4153 83.4399 30.178 83.3823 29.939 83.3936ZM65.3174 85.7031C65.1499 85.7018 64.9838 85.7342 64.8291 85.7983C64.5228 85.9253 64.2795 86.1686 64.1527 86.4749C64.0259 86.7812 64.0259 87.1254 64.1529 87.4316C64.2798 87.7379 64.5231 87.9812 64.8294 88.108C65.1357 88.2349 65.4799 88.2348 65.7862 88.1079C66.0924 87.981 66.3357 87.7376 66.4626 87.4313C66.5894 87.125 66.5893 86.7809 66.4624 86.4746C66.2703 86.0109 65.8194 85.707 65.3174 85.7031ZM34.7217 85.7056C34.2055 85.6935 33.7351 86 33.5376 86.4771C33.2752 87.1148 33.5789 87.8446 34.2163 88.1079C34.5226 88.2348 34.8667 88.2349 35.173 88.1081C35.4793 87.9812 35.7227 87.7379 35.8496 87.4317C35.9764 87.1251 35.9761 86.7807 35.8488 86.4743C35.7215 86.168 35.4776 85.9248 35.1709 85.7983C35.0281 85.74 34.8758 85.7085 34.7217 85.7056ZM39.6362 87.3877C39.0743 87.3929 38.5848 87.7724 38.4399 88.3154C38.2614 88.9822 38.657 89.6675 39.3237 89.8462C39.9905 90.0248 40.6758 89.6291 40.8545 88.9624C41.0331 88.2957 40.6374 87.6104 39.9707 87.4317C39.8617 87.402 39.7492 87.3872 39.6362 87.3877ZM60.3979 87.3901C60.2729 87.3853 60.1478 87.3993 60.0269 87.4316C59.3601 87.6104 58.9645 88.2957 59.1431 88.9624C59.3218 89.6291 60.0071 90.0248 60.6738 89.8462C61.3406 89.6675 61.7362 88.9822 61.5576 88.3154C61.4157 87.7861 60.9455 87.411 60.3979 87.3901ZM55.1807 88.4107C55.139 88.4118 55.0975 88.4151 55.0562 88.4204C54.372 88.5103 53.89 89.1376 53.9795 89.8218C54.0226 90.1508 54.1948 90.4492 54.4582 90.6512C54.7215 90.8531 55.0543 90.9421 55.3833 90.8984C56.0665 90.8073 56.547 90.1805 56.4575 89.4971C56.3738 88.8609 55.822 88.3914 55.1807 88.4107ZM44.7241 88.4131C44.1162 88.4376 43.6143 88.8963 43.5352 89.4995C43.4915 89.8285 43.5805 90.1613 43.7824 90.4247C43.9844 90.688 44.2828 90.8602 44.6118 90.9033C45.2961 90.9928 45.9233 90.5108 46.0132 89.8267C46.1042 89.1424 45.6232 88.5139 44.939 88.4229C44.8678 88.4134 44.7959 88.4102 44.7241 88.4131ZM50 88.75C49.3096 88.75 48.75 89.3096 48.75 90C48.75 90.6904 49.3096 91.25 50 91.25C50.6904 91.25 51.25 90.6904 51.25 90C51.25 89.3096 50.6904 88.75 50 88.75Z" fill="#4F91B1"/>
</svg>
