<svg xmlns="http://www.w3.org/2000/svg" x="0px" y="0px"
width="100" height="100"
viewBox="0,0,256,256">
<g fill="#ff9856" fill-rule="nonzero" stroke="none" stroke-width="1" stroke-linecap="butt" stroke-linejoin="miter" stroke-miterlimit="10" stroke-dasharray="" stroke-dashoffset="0" font-family="none" font-weight="none" font-size="none" text-anchor="none" style="mix-blend-mode: normal"><g transform="scale(4,4)"><path d="M11,4c-1.65234,0 -3,1.34766 -3,3c0,1.65234 1.34766,3 3,3h3.23047l2.34375,8.87891c1.00781,3.83203 3.4375,7.05078 6.84375,9.07422l2.09375,1.24219c0.30078,0.17969 0.48828,0.51172 0.48828,0.86328v3.83203c0,0.34766 -0.17578,0.66406 -0.46875,0.84766l-2.375,1.48438c-2.78906,1.74609 -4.89453,4.32422 -6.05469,7.36328c-0.01172,0.02734 -0.02734,0.05469 -0.03906,0.08594c-0.17187,0.45703 -0.32422,0.92969 -0.45312,1.40625l-2.375,8.92188h-3.23437c-1.65234,0 -3,1.34766 -3,3c0,1.65234 1.34766,3 3,3h42c1.65234,0 3,-1.34766 3,-3c0,-1.65234 -1.34766,-3 -3,-3h-3.23047l-2.36719,-8.93359c-0.99219,-3.73437 -3.35156,-6.90625 -6.64453,-8.92969l-2.28125,-1.40234c-0.29297,-0.18359 -0.47656,-0.50781 -0.47656,-0.85156v-3.66797c0,-0.35156 0.18359,-0.67969 0.48438,-0.85937l2.17188,-1.30859c3.35547,-2.03125 5.75781,-5.23828 6.75,-9.03516l2.36328,-9.01172h3.23047c1.65234,0 3,-1.34766 3,-3c0,-1.65234 -1.34766,-3 -3,-3zM11,6h42c0.55078,0 1,0.44922 1,1c0,0.55078 -0.44922,1 -1,1h-42c-0.55078,0 -1,-0.44922 -1,-1c0,-0.55078 0.44922,-1 1,-1zM16.29688,10h31.40625l-2.23047,8.5c-0.85937,3.29297 -2.94141,6.07031 -5.85156,7.82813l-2.17187,1.3125c-0.89453,0.54297 -1.44922,1.52734 -1.44922,2.57031v3.66797c0,1.03516 0.54688,2.01563 1.42969,2.55859l2.28125,1.40234c1.73047,1.0625 3.15625,2.49609 4.21094,4.17969l-3.65234,-1.5625c-5.25391,-2.25391 -11.28125,-2.25391 -16.53906,0l-3.60937,1.54688c1.03125,-1.63672 2.41797,-3.03516 4.09375,-4.08203l2.375,-1.48437c0.88281,-0.55469 1.41016,-1.50781 1.41016,-2.54687v-3.83594c0,-1.05469 -0.5625,-2.04297 -1.46875,-2.58203l-2.09375,-1.23828c-2.94922,-1.75391 -5.05859,-4.54687 -5.93359,-7.86328l-1.14844,-4.37109h17.64453c0.55078,0 1,-0.44922 1,-1c0,-0.55078 -0.44922,-1 -1,-1h-18c-0.05859,0 -0.10937,0.02344 -0.16797,0.03125zM39,12c-0.55078,0 -1,0.44922 -1,1c0,0.55078 0.44922,1 1,1h4c0.55078,0 1,-0.44922 1,-1c0,-0.55078 -0.44922,-1 -1,-1zM32,40.76563c2.55469,0 5.10547,0.51172 7.48438,1.53125l5.71875,2.44922c0.09375,0.27734 0.19141,0.55078 0.26563,0.83594l0.75,2.82422c-0.12891,0.16797 -0.21875,0.36719 -0.21875,0.59375v2c0,0.55078 0.44922,1 1,1c0.05859,0 0.10547,-0.02344 0.16016,-0.03125l0.53906,2.03125h-31.39844l0.54297,-2.03125c0.05469,0.00781 0.10156,0.03125 0.15625,0.03125c0.55078,0 1,-0.44922 1,-1v-2c0,-0.22266 -0.08594,-0.41797 -0.20703,-0.58203l0.75,-2.82422c0.07813,-0.28906 0.17578,-0.57422 0.26953,-0.85547l5.70313,-2.44141c2.37891,-1.01953 4.92969,-1.53125 7.48438,-1.53125zM22,48c-0.55078,0 -1,0.44922 -1,1v2c0,0.55078 0.44922,1 1,1c0.55078,0 1,-0.44922 1,-1v-2c0,-0.55078 -0.44922,-1 -1,-1zM27,48c-0.55078,0 -1,0.44922 -1,1v2c0,0.55078 0.44922,1 1,1c0.55078,0 1,-0.44922 1,-1v-2c0,-0.55078 -0.44922,-1 -1,-1zM32,48c-0.55078,0 -1,0.44922 -1,1v2c0,0.55078 0.44922,1 1,1c0.55078,0 1,-0.44922 1,-1v-2c0,-0.55078 -0.44922,-1 -1,-1zM37,48c-0.55078,0 -1,0.44922 -1,1v2c0,0.55078 0.44922,1 1,1c0.55078,0 1,-0.44922 1,-1v-2c0,-0.55078 -0.44922,-1 -1,-1zM42,48c-0.55078,0 -1,0.44922 -1,1v2c0,0.55078 0.44922,1 1,1c0.55078,0 1,-0.44922 1,-1v-2c0,-0.55078 -0.44922,-1 -1,-1zM11,56h42c0.55078,0 1,0.44922 1,1c0,0.55078 -0.44922,1 -1,1h-42c-0.55078,0 -1,-0.44922 -1,-1c0,-0.55078 0.44922,-1 1,-1z"></path></g></g>
</svg>