<svg
          xmlns="http://www.w3.org/2000/svg"
          x="0px"
          y="0px"
          width="100"
          height="100"
          viewBox="0 0 64 64"
        >
          <path
            fill="#9c34c2"
            d="M32,9C19.297,9,9,19.297,9,32s10.297,23,23,23s23-10.297,23-23S44.703,9,32,9z"
          ></path>
          <path
            fill="#fff"
            d="M32,14c2.577,0,4.674-1.957,4.946-4.461C35.352,9.19,33.699,9,32,9C19.297,9,9,19.297,9,32 c0,1.699,0.19,3.352,0.539,4.946C12.044,36.674,14,34.577,14,32C14,22.075,22.075,14,32,14z"
            opacity=".3"
          ></path>
          <path
            d="M54.461,27.054C51.956,27.326,50,29.423,50,32c0,9.925-8.075,18-18,18c-2.577,0-4.674,1.957-4.946,4.461 C28.648,54.81,30.301,55,32,55c12.703,0,23-10.297,23-23C55,30.301,54.81,28.648,54.461,27.054z"
            opacity=".15"
          ></path>
          <ellipse cx="32" cy="61" opacity=".3" rx="19" ry="3"></ellipse>
          <path
            fill="#fff"
            d="M15.046,24.927c-0.229,0-0.46-0.052-0.678-0.162c-0.738-0.375-1.033-1.278-0.658-2.017 c2.019-3.978,5.338-7.241,9.347-9.191c0.745-0.362,1.643-0.053,2.005,0.692c0.363,0.745,0.053,1.643-0.692,2.005 c-3.424,1.666-6.26,4.454-7.985,7.852C16.12,24.627,15.593,24.927,15.046,24.927z"
          ></path>
          <g>
            <path
              fill="#ffce29"
              d="M41,27h-7.999L33,24.832c-0.001-2.197-2.403-3.432-4.051-2.082l-8.982,7.359 c-1.291,1.058-1.29,3.112,0.002,4.169l8.989,7.35c1.649,1.348,4.05,0.111,4.049-2.086L33.006,37H41c1.657,0,3-1.343,3-3v-4 C44,28.343,42.657,27,41,27z"
            ></path>
          </g>
        </svg>