<svg xmlns="http://www.w3.org/2000/svg" x="0px" y="0px"
width="100" height="100"
viewBox="0 0 64 64">
<path fill="#a0effe" d="M60,33.5c0,0-12.536,14.5-28,14.5S4,33.5,4,33.5S16.536,19,32,19S60,33.5,60,33.5z"></path><circle cx="32" cy="33.5" r="8.5" fill="#9c34c2"></circle><ellipse cx="25.5" cy="28.509" fill="#fff" rx="3.5" ry="3.509"></ellipse><ellipse cx="32" cy="61" opacity=".3" rx="22" ry="3"></ellipse><path d="M60,33.5c0,0-12.54,14.5-28,14.5c-1.69,0-3.35-0.17-4.97-0.48C27.27,44.98,29.4,43,32,43	c8.861,0,16.506-5.653,21.216-9.916c1.965-1.778,5.016-1.598,6.764,0.393L60,33.5z" opacity=".15"></path><path fill="#fff" d="M36.97,19.48C36.73,22.02,34.6,24,32,24c-8.972,0-17.067,6.061-21.316,9.913	c-1.934,1.753-4.942,1.571-6.664-0.39L4,33.5C4,33.5,16.54,19,32,19C33.69,19,35.35,19.17,36.97,19.48z" opacity=".3"></path><path fill="#fff" d="M12.501,32c-0.44,0-0.876-0.192-1.172-0.562c-0.518-0.647-0.413-1.591,0.234-2.108	c2.537-2.029,5.137-3.606,6.266-4.171c0.741-0.369,1.642-0.07,2.013,0.671c0.37,0.741,0.07,1.642-0.671,2.013	c-0.976,0.488-3.396,1.959-5.734,3.829C13.161,31.893,12.83,32,12.501,32z"></path>
</svg>